<?xml version="1.0" standalone="no"?>
<!DOCTYPE svg PUBLIC "-//W3C//DTD SVG 20010904//EN"
 "http://www.w3.org/TR/2001/REC-SVG-20010904/DTD/svg10.dtd">
<svg version="1.0" xmlns="http://www.w3.org/2000/svg"
 width="3543.000000pt" height="3730.000000pt" viewBox="0 0 3543.000000 3730.000000"
 preserveAspectRatio="xMidYMid meet">

<g transform="translate(0.000000,3730.000000) scale(0.100000,-0.100000)"
fill="#000000" stroke="none">
<path d="M12463 17141 c-55 -15 -203 -198 -259 -321 -14 -30 -15 -73 -4 -147
1 -9 70 0 94 12 15 8 36 15 45 15 9 0 36 7 60 16 104 36 154 -31 130 -175 -10
-59 -9 -77 3 -113 9 -24 21 -64 28 -90 15 -58 87 -138 124 -138 45 0 75 21 86
59 18 65 8 114 -37 179 -27 41 -31 103 -7 126 8 9 28 16 44 16 16 0 40 4 54
10 26 9 26 10 25 128 -1 124 -3 116 66 292 39 100 38 101 -150 119 -131 13
-277 19 -302 12z"/>
<path d="M13070 16803 c0 -23 15 -39 23 -26 3 5 -1 17 -9 28 -14 18 -14 18
-14 -2z"/>
<path d="M13135 16673 c14 -98 52 -203 75 -203 15 0 30 70 30 141 0 79 -20
109 -76 109 l-35 0 6 -47z"/>
<path d="M17698 16494 c-28 -8 -22 -26 27 -78 49 -53 54 -76 34 -151 -20 -78
-50 -288 -44 -312 8 -33 39 -57 83 -63 30 -4 40 -11 54 -40 9 -19 17 -47 18
-62 0 -27 -2 -28 -47 -27 -86 1 -126 12 -140 39 -7 14 -18 24 -24 22 -17 -4
-59 -54 -75 -89 -9 -20 -22 -33 -33 -33 -35 0 -44 -26 -41 -118 6 -197 4 -204
-86 -296 l-57 -58 -2 -82 c-3 -102 -31 -192 -63 -198 -20 -4 -73 -157 -62
-178 12 -22 -38 -92 -73 -101 -27 -7 -58 -38 -84 -83 -8 -13 -12 -63 -13 -128
0 -118 -4 -138 -30 -138 -39 0 -52 -33 -50 -132 2 -125 1 -140 -9 -134 -5 3
-19 -3 -32 -13 -13 -10 -35 -21 -49 -24 -25 -6 -50 -52 -66 -122 -13 -55 -52
-121 -79 -133 -22 -10 -25 -15 -15 -27 9 -11 6 -17 -13 -30 -37 -24 -55 -70
-63 -160 -7 -84 -33 -142 -75 -167 -28 -18 -48 -68 -54 -141 -4 -42 -2 -70 7
-87 13 -24 25 -29 128 -49 44 -9 61 -18 83 -46 15 -19 27 -37 27 -41 0 -4 7
-16 16 -26 27 -29 2 -49 -50 -42 -37 6 -114 38 -126 53 -11 13 -70 51 -80 51
-5 0 -19 9 -31 21 -17 17 -33 21 -89 20 -63 0 -71 2 -98 28 -31 31 -39 50 -68
146 -18 62 -31 90 -51 112 -12 14 -53 117 -53 135 0 6 -9 25 -19 42 -11 17
-22 53 -26 79 -6 37 -14 52 -34 65 -14 9 -28 17 -30 19 -2 1 1 9 8 17 15 17
-5 26 -58 26 -28 0 -44 7 -62 26 -36 39 -64 46 -105 29 -19 -8 -37 -21 -40
-29 -3 -8 -19 -20 -35 -26 -16 -7 -28 -15 -27 -19 29 -57 52 -80 89 -86 32 -6
47 -16 70 -47 16 -23 29 -47 29 -54 0 -16 63 -136 96 -183 20 -28 24 -46 24
-105 1 -73 14 -106 43 -106 9 0 18 -9 22 -19 3 -11 17 -26 30 -35 13 -9 36
-36 50 -61 15 -25 33 -45 41 -45 8 0 21 -18 30 -40 9 -22 22 -40 28 -40 19 0
66 -167 66 -232 0 -77 -12 -105 -55 -123 -32 -13 -40 -13 -63 0 -47 25 -72 52
-66 69 4 11 -3 19 -23 28 -49 21 -102 69 -108 98 -7 30 -55 86 -97 113 -17 11
-31 32 -38 58 -7 26 -30 61 -61 94 -27 29 -49 57 -49 64 0 7 -18 39 -40 71
-22 32 -40 63 -40 69 0 5 -8 16 -19 23 -10 7 -20 22 -22 33 -2 11 -18 27 -34
35 -17 8 -40 25 -51 36 -12 12 -26 23 -31 25 -5 2 -24 27 -43 54 -18 28 -37
52 -40 55 -8 6 -43 74 -58 111 -18 45 -112 48 -164 6 -19 -15 -25 -33 -8 -22
5 3 12 -7 16 -22 12 -53 70 -148 122 -201 29 -29 52 -60 52 -68 0 -9 12 -41
27 -72 15 -31 26 -67 25 -79 -2 -30 24 -89 43 -97 9 -3 25 -6 36 -6 13 0 24
-13 35 -40 9 -22 22 -40 29 -40 6 0 38 -28 69 -62 32 -35 61 -66 64 -70 4 -4
29 -28 56 -53 46 -42 82 -90 105 -142 6 -13 19 -23 29 -23 11 0 38 -15 62 -32
24 -18 51 -38 62 -44 10 -6 26 -19 36 -28 9 -9 26 -23 37 -31 15 -10 20 -24
19 -62 -1 -91 -16 -248 -25 -265 -5 -9 -9 -26 -9 -38 0 -45 -138 -57 -200 -17
-19 12 -57 33 -85 47 -34 17 -51 32 -53 47 -2 12 -10 27 -18 33 -8 7 -14 21
-14 32 0 16 -31 64 -78 123 -4 6 -14 24 -21 42 -8 19 -21 33 -34 35 -13 2 -25
16 -34 42 -7 22 -21 45 -31 52 -18 12 -28 40 -52 134 -11 45 -31 78 -80 130
-14 15 -37 48 -50 74 -14 25 -28 46 -31 46 -7 0 -99 134 -99 144 0 4 -11 19
-25 34 -14 15 -25 32 -25 38 0 6 -11 21 -24 33 -13 13 -27 33 -30 46 -3 13
-15 27 -27 30 -11 4 -24 17 -29 30 -8 22 -106 95 -127 95 -15 0 -63 65 -63 85
0 30 -30 75 -51 75 -37 0 -40 -40 -9 -128 31 -87 50 -121 90 -164 14 -14 35
-37 47 -50 12 -13 25 -41 29 -63 11 -64 52 -146 99 -196 23 -25 46 -56 50 -70
4 -13 23 -39 41 -57 19 -18 34 -39 34 -46 0 -7 9 -21 20 -31 11 -10 20 -25 20
-34 0 -9 9 -23 20 -31 11 -8 20 -22 20 -32 0 -10 8 -23 19 -30 10 -6 40 -43
66 -83 26 -39 62 -80 79 -91 17 -12 42 -43 55 -70 24 -48 111 -144 130 -144 5
0 15 -25 21 -55 11 -53 11 -55 -16 -80 -15 -14 -39 -28 -53 -32 -14 -3 -31
-10 -38 -15 -7 -6 -19 -6 -31 1 -10 5 -34 10 -53 10 -19 -1 -82 4 -142 10 -74
8 -113 8 -126 1 -11 -5 -31 -10 -45 -10 -14 0 -26 -4 -26 -9 0 -12 -56 -30
-108 -35 -23 -2 -47 -8 -54 -13 -13 -11 -23 -11 -168 2 -100 10 -98 10 -220 0
-52 -3 -132 -16 -178 -27 -59 -14 -118 -20 -204 -20 l-120 0 -42 41 c-23 23
-51 41 -64 41 -12 0 -22 5 -22 10 0 6 -7 10 -15 10 -14 0 -23 -6 -77 -54 -64
-57 -171 -71 -457 -61 -338 12 -608 11 -698 -2 -108 -16 -139 -3 -148 61 -7
45 0 86 14 86 5 0 20 11 35 25 15 14 33 25 40 25 30 0 86 87 86 133 0 24 56
117 89 148 20 18 41 76 41 112 0 10 6 20 14 23 8 3 19 18 26 33 12 30 103 91
135 91 20 0 140 39 161 52 6 4 35 16 65 27 30 12 70 32 89 46 19 14 42 25 53
25 10 0 21 9 24 20 6 21 90 69 109 63 6 -2 24 11 38 29 49 61 81 90 113 103
17 7 40 26 50 42 24 38 34 48 68 66 17 9 43 27 59 40 24 19 28 29 22 50 -12
49 -67 31 -155 -52 -24 -22 -50 -41 -58 -41 -7 0 -13 -5 -13 -11 0 -5 -15 -16
-34 -24 -18 -8 -36 -21 -40 -30 -3 -9 -22 -23 -41 -31 -19 -8 -35 -19 -35 -24
0 -6 -33 -25 -72 -44 -40 -18 -84 -46 -98 -61 -60 -64 -242 -135 -350 -135
-26 0 -63 9 -85 20 -26 13 -59 20 -97 20 -55 0 -58 -1 -58 -25 0 -13 9 -39 20
-57 16 -26 20 -51 20 -118 0 -76 -3 -92 -31 -145 -17 -33 -37 -67 -44 -75 -7
-8 -22 -33 -33 -55 -11 -22 -30 -46 -42 -53 -11 -7 -25 -23 -30 -37 -5 -13
-25 -31 -44 -40 -20 -10 -36 -21 -36 -25 0 -4 -16 -17 -35 -28 -19 -12 -37
-31 -40 -44 -4 -13 -24 -34 -45 -47 -35 -22 -60 -56 -60 -84 -1 -7 -11 -25
-24 -41 -23 -28 -24 -28 -122 -26 -112 3 -121 3 -224 3 -41 -1 -97 -1 -125 0
-27 0 -75 -7 -105 -16 -47 -14 -71 -15 -165 -7 -60 6 -136 15 -168 21 -59 10
-478 33 -597 32 -36 0 -103 -1 -150 -1 -47 -1 -103 0 -125 0 -151 5 -392 -6
-410 -18 -26 -19 -69 -17 -133 5 -62 21 -150 79 -158 104 -3 9 -31 29 -62 43
-31 14 -69 37 -85 50 -16 14 -43 31 -61 40 -17 8 -42 21 -54 28 -31 18 -59 10
-66 -20 -4 -13 -13 -24 -20 -24 -8 0 -26 -14 -40 -31 -15 -17 -43 -43 -64 -56
-20 -14 -39 -29 -42 -33 -3 -4 -14 -12 -26 -18 -18 -9 -21 -20 -20 -68 l1 -58
110 -18 c61 -10 140 -17 178 -16 73 1 103 -14 109 -55 2 -14 14 -25 33 -30 17
-5 49 -18 72 -29 23 -11 46 -17 51 -14 5 3 24 -6 42 -19 19 -14 42 -25 51 -25
10 0 21 -5 24 -10 4 -6 15 -8 25 -5 11 3 27 2 37 -4 10 -5 43 -12 73 -16 30
-3 87 -10 125 -14 82 -11 149 -2 225 30 43 18 78 23 160 25 58 1 193 6 300 9
222 9 254 8 328 -1 29 -3 81 -1 116 5 55 10 71 9 127 -9 85 -27 164 -34 219
-20 57 15 136 13 175 -4 66 -30 96 -36 102 -20 3 8 13 14 22 14 9 0 35 7 59
15 42 15 121 22 197 17 43 -3 113 9 136 24 44 28 226 6 311 -37 20 -10 50 -19
66 -19 16 0 35 -7 42 -15 15 -18 51 -20 68 -2 12 12 117 23 302 32 83 4 87 3
173 -37 48 -23 87 -47 87 -54 0 -18 25 -24 96 -24 62 0 65 1 62 23 -2 17 3 23
22 25 13 2 29 10 35 17 11 15 69 34 127 42 27 3 45 -1 65 -15 16 -11 53 -22
85 -25 51 -5 60 -3 73 16 8 12 15 18 15 15 0 -4 16 4 36 17 20 14 46 25 56 25
11 0 35 7 54 16 29 14 39 14 66 3 21 -9 74 -13 157 -12 70 1 131 -3 136 -7 11
-9 94 -16 285 -25 63 -2 158 -7 211 -10 60 -4 107 -2 125 5 16 7 52 11 79 10
148 -3 173 -3 207 4 33 6 41 3 73 -27 43 -40 103 -52 175 -36 25 6 65 14 90
18 25 4 50 10 57 14 6 4 68 7 138 8 99 0 131 -3 143 -14 21 -19 122 -46 154
-41 86 12 102 17 124 42 14 14 32 27 42 28 9 2 37 8 62 14 34 8 50 8 67 -1 17
-9 29 -9 46 -2 58 28 105 33 179 21 40 -6 80 -18 89 -25 9 -8 31 -18 49 -23
28 -8 37 -6 62 15 16 14 37 25 45 25 13 0 14 8 9 41 -5 31 -2 46 11 63 19 24
43 24 43 0 0 -18 16 -18 23 -1 4 10 34 16 95 20 70 5 101 12 135 31 32 18 47
22 55 14 11 -11 25 -7 107 27 107 45 121 48 153 31 38 -20 56 -20 129 -1 71
19 151 19 172 1 9 -7 30 -18 47 -24 40 -13 235 -5 294 12 25 7 62 13 83 14 46
0 97 29 76 43 -12 8 -12 11 1 19 8 5 20 10 25 10 18 0 38 -17 32 -27 -7 -11
25 -44 58 -61 25 -12 154 -15 169 -3 14 11 64 21 135 28 44 4 57 2 67 -12 9
-12 19 -15 35 -10 13 5 24 2 30 -6 6 -10 12 -9 28 6 18 15 38 18 120 19 58 1
104 6 112 13 17 14 127 10 188 -7 33 -9 60 -9 111 0 54 9 450 8 610 -2 8 0 33
0 55 2 22 1 61 -1 86 -5 54 -9 109 12 124 47 13 30 75 41 130 24 24 -8 71 -12
115 -10 41 3 103 4 137 4 33 -1 64 4 68 10 4 7 17 4 37 -7 23 -14 32 -15 35
-5 7 19 21 14 29 -10 6 -21 7 -21 20 -3 8 10 14 28 14 38 0 29 51 105 75 111
11 3 50 9 87 12 82 8 173 -15 181 -47 7 -26 18 -24 53 10 36 35 98 49 219 50
106 1 141 7 149 26 3 8 21 17 40 20 30 6 73 35 51 35 -4 0 -2 7 5 16 10 12 31
15 89 13 42 -2 128 1 191 5 138 9 113 9 288 0 152 -8 219 1 300 37 68 31 199
49 341 47 79 -1 135 3 143 9 8 7 62 9 148 7 101 -3 151 0 200 12 36 9 86 17
112 18 25 0 50 4 54 9 4 4 20 7 35 7 15 0 31 5 34 10 3 6 21 10 39 10 17 0 36
4 42 9 5 5 32 12 59 14 28 3 75 10 105 16 30 5 120 10 199 10 134 1 148 -1
214 -26 42 -17 86 -43 110 -65 21 -21 48 -38 60 -38 14 0 45 25 87 71 l65 71
58 2 c68 3 107 32 107 77 0 17 8 34 22 43 l22 16 -30 0 c-32 0 -74 24 -74 43
0 7 -41 54 -90 105 -50 52 -90 102 -90 111 0 26 -29 81 -62 119 -15 18 -28 39
-28 46 0 8 -7 19 -15 26 -9 7 -32 46 -52 86 -19 41 -40 71 -45 68 -20 -13 -29
-61 -23 -122 7 -68 22 -90 67 -99 16 -3 33 -14 38 -24 14 -25 12 -120 -2 -152
-14 -29 -55 -49 -85 -40 -18 4 -73 81 -73 101 0 5 -16 19 -34 30 -39 23 -96
96 -96 123 0 9 -6 30 -14 46 -17 32 -43 120 -52 173 -11 66 -24 87 -71 111
-68 36 -103 115 -103 233 0 48 3 65 12 60 19 -12 62 -13 75 -2 8 6 13 34 13
69 0 79 12 105 54 119 20 6 36 15 36 18 0 4 25 20 55 37 30 16 55 34 55 41 0
12 -42 34 -67 34 -9 0 -32 12 -51 26 -31 24 -33 30 -27 63 9 47 10 120 2 152
-9 33 -101 93 -132 85 -13 -3 -36 -1 -51 5 -33 12 -74 4 -74 -15 0 -28 -27
-39 -60 -26 -35 14 -38 33 -11 74 15 23 18 41 14 85 -9 103 -33 136 -91 125
-37 -8 -94 20 -86 41 4 8 2 15 -2 16 -36 3 -84 31 -132 77 -7 6 -24 12 -37 12
-27 0 -35 21 -35 102 0 70 13 110 35 102 8 -4 21 -1 29 5 8 7 43 11 83 10 78
-2 101 7 125 48 15 26 15 30 -1 63 -14 30 -22 35 -54 38 -22 2 -51 -1 -66 -6
-18 -6 -48 -5 -91 4 -36 7 -95 14 -131 14 -84 0 -181 18 -194 35 -6 7 -28 16
-48 20 -29 6 -38 4 -43 -9 -8 -20 -21 -20 -40 -1 -9 8 -27 15 -40 15 -45 0
-119 22 -134 40 -8 10 -31 20 -50 24 -19 3 -44 15 -55 26 -28 26 -232 130
-256 130 -10 0 -31 5 -46 11 -15 6 -37 15 -48 19 -11 5 -65 16 -119 25 -55 9
-119 26 -142 38 -121 63 -198 99 -224 104 -61 13 -265 34 -360 37 -120 4 -170
16 -170 39 0 9 -30 25 -73 41 -82 30 -269 52 -422 50 -99 -2 -144 12 -160 48
-6 13 -28 29 -51 38 -22 8 -48 22 -57 32 -36 36 -148 34 -167 -3 -6 -10 -24
-26 -41 -35 -38 -19 -77 -7 -124 39 -31 31 -125 63 -218 74 -26 3 -50 10 -53
14 -3 5 -13 9 -23 9 -20 0 -41 39 -41 75 0 26 -32 62 -68 76 -39 15 -70 10
-94 -14 -40 -42 -233 -61 -308 -31 -22 9 -45 25 -50 34 -10 19 -86 58 -155 80
-92 29 -121 42 -136 62 -13 17 -33 22 -100 29 -46 4 -92 8 -101 8 -11 1 -18 9
-18 21 0 25 -18 26 -36 3 -12 -17 -14 -16 -30 5 -18 25 -13 25 -169 7 -27 -4
-84 -8 -125 -9 -41 -1 -93 -8 -115 -14 -22 -6 -72 -12 -110 -13 -62 -2 -79 2
-149 35 -72 34 -113 44 -141 35 -27 -8 -146 14 -158 29 -13 18 -40 34 -127 78
-54 26 -157 41 -202 28z m609 -470 c47 -48 53 -78 21 -98 -14 -8 -26 -6 -52 8
-38 20 -52 44 -60 99 -4 35 -3 37 21 37 18 0 40 -14 70 -46z m481 -32 c3 -9
-2 -13 -14 -10 -9 1 -19 9 -22 16 -3 9 2 13 14 10 9 -1 19 -9 22 -16z m2472
-382 c0 -48 -19 -64 -67 -57 -45 8 -49 12 -56 61 -6 37 -5 38 21 33 15 -3 36
-1 47 3 37 13 55 1 55 -40z m-3052 -63 c29 -26 17 -38 -31 -30 -28 4 -42 13
-52 34 l-15 28 38 -6 c20 -3 47 -15 60 -26z m47 -75 c0 -18 -20 -15 -23 4 -3
10 1 15 10 12 7 -3 13 -10 13 -16z m-510 -18 c20 -21 16 -58 -7 -62 -21 -4
-44 38 -35 62 8 20 21 20 42 0z m1810 -34 c10 -16 15 -70 7 -70 -17 0 -32 25
-32 52 0 28 13 37 25 18z m-1235 -25 c0 -9 9 -15 23 -15 12 0 35 -12 52 -27
16 -16 38 -33 50 -38 11 -6 26 -24 34 -42 8 -17 22 -34 32 -36 11 -3 19 -13
19 -24 0 -10 14 -26 30 -35 26 -15 30 -22 30 -63 0 -61 -18 -67 -76 -26 -25
17 -49 31 -53 31 -5 0 -18 15 -29 33 -12 17 -35 51 -51 75 -17 23 -31 48 -31
55 0 7 -6 21 -14 32 -7 11 -21 37 -29 58 -14 32 -14 37 -1 37 7 0 14 -7 14
-15z m1724 -24 c3 -4 3 -11 0 -14 -8 -8 -34 3 -34 14 0 11 27 12 34 0z m-1114
-10 c0 -5 -6 -14 -14 -20 -16 -13 -32 2 -21 19 8 12 35 13 35 1z m864 -88 c20
-21 36 -47 36 -58 0 -11 11 -32 24 -48 13 -15 29 -41 36 -57 7 -17 17 -30 22
-30 5 0 14 -13 19 -29 6 -18 21 -33 37 -39 33 -12 117 -91 126 -119 3 -11 18
-25 31 -31 14 -7 30 -22 35 -34 6 -13 22 -39 36 -58 16 -23 24 -45 22 -65 -3
-28 -5 -30 -45 -29 -35 0 -48 7 -87 47 -25 25 -46 50 -46 55 0 5 -10 16 -23
25 -13 8 -34 37 -47 63 -13 27 -29 61 -37 76 -7 14 -10 33 -7 42 4 11 -3 19
-22 26 -16 6 -33 17 -39 24 -5 6 -37 34 -70 61 -78 63 -106 94 -128 140 -27
56 -16 75 43 75 43 0 53 -4 84 -37z m491 -3 c17 -10 42 -20 56 -24 22 -5 28
-13 33 -46 7 -44 -1 -93 -14 -85 -4 3 -15 -6 -24 -19 -21 -32 -77 -28 -115 8
-15 14 -32 26 -39 26 -11 0 -27 47 -38 110 -5 32 -3 37 23 46 34 13 78 7 118
-16z m1230 10 c10 -11 23 -20 28 -20 13 0 36 -32 37 -51 0 -8 8 -24 18 -35 24
-26 42 -78 42 -125 0 -29 -5 -39 -21 -44 -36 -12 -69 4 -129 65 -94 93 -115
176 -55 211 40 23 58 23 80 -1z m-655 -35 c13 -12 27 -13 62 -7 62 12 104 4
122 -23 8 -12 27 -27 43 -34 19 -8 34 -26 47 -57 l18 -45 -33 -64 c-33 -64
-34 -65 -75 -65 -37 0 -43 4 -54 29 -6 16 -18 32 -25 35 -8 3 -22 20 -31 38
-26 51 -77 108 -96 108 -10 0 -23 9 -30 19 -6 10 -17 17 -24 14 -24 -9 -25 19
-2 42 27 27 55 31 78 10z m-1575 -45 c0 -33 -2 -35 -35 -35 -19 0 -40 -4 -47
-8 -23 -14 -23 12 -1 47 19 30 28 35 53 33 27 -2 30 -5 30 -37z m2748 -60 c3
-12 14 -20 26 -20 22 0 39 -39 26 -59 -11 -19 -45 -12 -54 12 -5 12 -19 30
-31 40 -17 15 -19 21 -10 33 17 20 37 17 43 -6z m662 -27 c23 -11 39 -28 47
-50 7 -18 15 -33 19 -33 4 0 14 -17 23 -37 19 -43 56 -98 86 -128 11 -12 20
-27 20 -35 0 -9 9 -21 21 -28 14 -9 18 -19 14 -33 -5 -14 5 -30 37 -62 24 -24
55 -51 71 -60 15 -10 27 -22 27 -28 0 -6 13 -22 30 -35 18 -15 32 -39 36 -60
4 -24 14 -39 30 -46 18 -9 24 -21 30 -67 10 -87 17 -97 83 -127 34 -15 61 -30
61 -34 0 -5 20 -18 45 -30 25 -12 45 -26 45 -30 0 -5 11 -21 24 -37 12 -15 33
-55 45 -88 13 -33 28 -67 35 -75 27 -30 38 -85 24 -116 -7 -16 -16 -32 -21
-35 -14 -10 4 -37 30 -44 16 -4 31 -1 42 10 28 25 66 18 112 -21 24 -20 48
-44 54 -54 5 -10 28 -42 51 -71 46 -62 74 -114 74 -140 0 -10 4 -21 10 -24 5
-3 14 -23 20 -44 7 -27 22 -46 55 -70 25 -18 45 -36 45 -41 0 -4 14 -13 30
-19 19 -6 30 -17 30 -28 0 -11 4 -23 8 -29 12 -13 40 -110 48 -164 8 -54 17
-67 61 -85 18 -8 36 -22 39 -32 23 -74 38 -93 76 -104 47 -12 60 -40 56 -113
-3 -45 -6 -52 -30 -60 -36 -13 -55 5 -97 89 -21 41 -42 69 -59 77 -16 8 -38
35 -55 68 -21 41 -38 61 -70 78 -23 12 -48 22 -55 22 -24 0 -105 95 -134 157
-16 34 -36 67 -44 74 -8 6 -14 17 -14 23 0 6 -9 17 -20 24 -11 7 -20 19 -20
27 0 8 -8 15 -18 15 -11 0 -27 9 -37 20 -10 11 -24 20 -31 20 -7 0 -25 17 -40
38 -41 55 -96 112 -110 112 -7 0 -22 20 -34 45 -15 30 -28 45 -41 45 -22 0
-109 76 -109 95 0 8 -15 23 -34 34 -49 31 -63 57 -96 183 -42 160 -53 187 -72
194 -10 3 -23 14 -28 25 -6 10 -17 19 -24 19 -7 0 -34 9 -58 20 -41 18 -47 25
-67 82 -13 35 -27 83 -33 107 -6 24 -23 69 -39 100 -16 30 -29 60 -29 66 0 6
-14 21 -31 35 -56 45 -80 74 -104 126 -12 28 -27 54 -33 58 -6 3 -18 31 -27
61 -10 30 -22 55 -26 55 -5 0 -9 7 -9 16 0 9 -7 22 -15 28 -8 6 -17 21 -20 34
-2 13 -13 31 -25 40 -11 9 -23 34 -27 54 -5 33 -3 39 18 47 37 15 85 13 124
-6z m-4630 -11 c12 -8 57 -83 53 -87 -2 -1 -14 -8 -28 -16 -25 -14 -24 -14 20
-19 25 -3 43 -9 40 -15 -3 -5 -12 -9 -20 -9 -65 6 -96 16 -116 37 -24 26 -41
88 -29 106 7 12 65 15 80 3z m1116 -25 c4 -15 19 -41 33 -58 28 -33 34 -69 12
-69 -8 0 -18 5 -21 10 -3 6 -17 10 -31 10 -13 0 -23 3 -22 8 1 4 -3 16 -8 27
-16 30 -6 107 14 103 9 -2 19 -15 23 -31z m-414 -56 c7 -9 16 -21 21 -27 49
-58 37 -154 -19 -154 -22 0 -89 64 -89 85 0 8 -9 20 -20 27 -30 19 -26 60 7
80 32 19 82 14 100 -11z m3532 -20 c32 -34 52 -110 44 -169 -5 -38 -4 -42 16
-42 12 0 24 -8 27 -17 11 -37 22 -48 47 -48 14 0 32 -6 38 -12 7 -7 24 -13 39
-13 29 -1 82 -45 104 -89 9 -17 25 -35 36 -41 11 -6 20 -15 20 -21 0 -6 16
-42 35 -80 19 -39 35 -80 35 -93 0 -13 13 -39 30 -57 16 -19 32 -46 35 -61 7
-31 39 -58 70 -58 11 0 35 -13 53 -28 32 -28 49 -68 73 -171 5 -23 21 -58 34
-75 14 -18 25 -38 25 -45 0 -11 20 -51 30 -61 3 -3 13 -17 22 -32 10 -15 31
-29 48 -33 16 -4 30 -13 30 -20 0 -8 8 -20 18 -27 9 -7 25 -25 34 -40 10 -15
33 -42 51 -60 19 -18 37 -46 41 -61 15 -64 49 -125 79 -142 17 -10 63 -49 102
-87 38 -37 77 -70 87 -73 9 -3 19 -16 22 -29 3 -13 22 -47 41 -76 56 -83 43
-130 -32 -115 -73 15 -110 31 -139 59 -17 17 -46 42 -63 56 -32 24 -111 133
-111 151 0 5 -11 15 -25 21 -14 6 -25 15 -25 21 0 10 -37 46 -100 99 -27 21
-45 48 -56 80 -8 26 -20 50 -25 53 -5 4 -9 16 -9 29 0 28 -55 106 -74 106 -7
0 -25 12 -40 27 -15 15 -37 32 -49 38 -12 6 -33 32 -47 57 -14 26 -44 69 -68
95 -29 32 -48 66 -58 103 -23 81 -22 80 -37 80 -8 0 -19 18 -26 40 -9 30 -24
48 -66 77 -30 21 -55 43 -55 48 0 6 -8 15 -19 22 -19 12 -101 171 -119 233 -6
19 -14 55 -17 80 -4 25 -12 51 -18 59 -6 7 -16 23 -22 35 -6 11 -25 30 -42 41
-17 11 -34 30 -37 43 -4 12 -11 22 -17 22 -6 0 -29 18 -51 41 -60 62 -75 132
-36 169 33 30 84 27 117 -9z m958 -11 c32 0 75 -82 71 -135 l-3 -40 -64 -8
c-61 -7 -65 -7 -93 19 -31 30 -39 88 -14 97 8 3 19 22 26 42 10 31 16 36 34
31 11 -3 31 -6 43 -6z m-2603 -33 c16 -20 22 -43 24 -99 1 -40 8 -90 14 -110
19 -63 -10 -90 -52 -48 -11 11 -32 20 -47 20 -55 0 -89 21 -111 69 -31 66 -31
100 2 155 l28 48 61 -4 c50 -4 64 -9 81 -31z m1129 -9 c15 -11 27 -23 27 -27
0 -4 8 -16 18 -27 55 -61 92 -109 92 -121 0 -15 65 -119 80 -128 6 -4 8 -14 5
-24 -3 -11 4 -25 17 -37 41 -35 87 -64 102 -64 8 0 24 -16 36 -35 12 -20 29
-42 37 -50 8 -8 20 -36 26 -62 9 -36 20 -53 47 -70 67 -44 187 -166 200 -202
7 -20 36 -61 65 -91 37 -39 58 -71 70 -110 14 -41 31 -66 71 -104 30 -27 54
-58 54 -68 0 -10 8 -22 18 -25 32 -12 92 -83 112 -133 11 -28 17 -50 14 -50
-5 0 33 -59 46 -70 5 -5 28 -46 57 -102 8 -15 25 -29 41 -33 17 -3 46 -28 76
-65 27 -32 55 -61 62 -64 12 -5 45 -49 89 -122 11 -19 27 -40 35 -47 71 -65
129 -131 140 -159 8 -18 26 -48 42 -66 20 -24 28 -43 28 -72 0 -39 0 -40 -54
-55 -30 -9 -60 -22 -66 -30 -16 -19 -44 -20 -37 -1 4 10 -8 15 -44 20 -34 5
-52 13 -59 27 -7 12 -10 70 -8 149 3 119 1 130 -17 144 -11 9 -29 16 -40 16
-31 0 -159 141 -179 197 -9 26 -21 55 -27 63 -5 8 -13 25 -19 38 -5 12 -15 22
-22 22 -8 0 -29 13 -48 29 -19 15 -48 35 -65 44 -44 23 -70 56 -89 113 -9 28
-31 73 -49 99 -18 27 -35 53 -39 59 -4 6 -13 33 -20 60 -9 34 -20 51 -35 57
-12 4 -39 28 -60 51 -21 24 -52 57 -69 75 -17 17 -47 56 -67 85 -21 29 -62 80
-92 112 -29 33 -57 71 -60 85 -7 28 -61 87 -96 105 -13 6 -30 24 -37 39 -8 16
-24 32 -36 37 -16 6 -27 24 -38 64 -17 59 -62 126 -84 126 -7 0 -23 10 -36 23
-20 19 -115 101 -136 117 -14 10 -42 69 -42 88 0 12 -4 24 -10 27 -5 3 -10 14
-10 24 0 10 -11 38 -24 63 l-24 45 21 21 c24 24 66 21 110 -10z m-3551 -10
c35 -19 128 -101 128 -114 0 -6 9 -18 21 -25 17 -12 19 -18 10 -42 -6 -15 -18
-27 -26 -27 -27 0 -87 29 -80 39 3 6 -4 15 -17 22 -32 17 -88 79 -88 98 0 26
12 61 20 61 4 0 18 -6 32 -12z m1422 -93 c6 -11 21 -33 34 -48 12 -16 22 -35
22 -43 0 -7 11 -16 25 -20 51 -13 71 -71 35 -101 -11 -10 -20 -27 -20 -38 0
-24 -25 -56 -61 -79 -25 -16 -29 -16 -60 2 -19 10 -45 34 -57 53 -21 30 -23
41 -17 94 3 33 6 77 6 97 0 20 4 40 9 43 6 3 10 16 10 29 0 12 3 26 7 30 13
13 56 1 67 -19z m1731 -33 c17 -14 30 -32 30 -41 1 -29 28 -71 45 -71 64 0 86
-95 49 -208 -12 -37 -30 -76 -40 -86 -16 -17 -23 -18 -56 -8 -38 11 -73 52
-73 86 0 29 -33 111 -52 131 -11 11 -36 45 -55 75 -28 44 -33 62 -29 90 7 42
31 63 66 55 14 -3 31 -1 39 4 18 11 38 4 76 -27z m-488 -120 c4 -30 -10 -62
-26 -62 -3 0 -14 7 -24 14 -17 13 -17 17 -3 51 20 47 48 45 53 -3z m2587 -32
c19 -23 39 -35 55 -35 24 0 27 -5 35 -62 5 -35 13 -63 18 -63 4 0 8 -5 8 -10
0 -6 18 -48 40 -95 22 -47 40 -93 40 -103 0 -18 -3 -18 -52 -6 -75 19 -93 31
-171 108 l-69 69 7 61 c3 34 8 87 10 118 4 64 23 98 39 69 5 -9 23 -32 40 -51z
m-4410 30 c24 -16 49 -42 55 -59 7 -16 21 -31 32 -34 11 -3 19 -14 19 -26 0
-12 4 -29 9 -39 5 -9 14 -34 21 -55 10 -34 10 -40 -7 -52 -36 -28 -77 -18
-116 27 -20 23 -37 46 -37 50 0 4 -7 8 -15 8 -8 0 -18 17 -25 43 -6 23 -17 62
-24 86 -12 38 -12 45 3 61 23 26 36 24 85 -10z m-460 -85 c9 -14 23 -25 30
-25 17 0 31 -69 18 -82 -6 -6 -24 -5 -49 1 -74 20 -107 131 -39 131 14 0 30
-10 40 -25z m1786 -44 c23 -16 38 -38 110 -150 16 -26 20 -43 15 -68 -6 -34
-31 -45 -41 -18 -3 8 -20 19 -37 25 -18 5 -55 32 -83 60 -52 50 -64 79 -64
154 0 27 1 28 38 22 20 -4 48 -15 62 -25z m428 23 c24 -5 34 -15 46 -45 9 -22
20 -39 26 -39 5 0 10 -8 10 -18 0 -10 5 -23 11 -29 7 -7 9 -19 5 -28 -4 -12
-10 -14 -26 -5 -10 6 -32 9 -48 8 -47 -3 -90 20 -97 54 -4 17 -3 40 3 52 6 11
13 29 16 39 6 19 10 20 54 11z m-2655 -61 c51 -34 86 -74 109 -126 27 -58 5
-76 -45 -37 -14 11 -32 20 -41 20 -9 0 -16 4 -16 9 0 5 -17 16 -39 24 -36 15
-44 26 -65 91 -8 23 10 46 35 46 11 0 38 -12 62 -27z m3495 -12 c61 -31 97
-79 120 -156 25 -82 18 -135 -21 -171 -14 -13 -30 -39 -36 -57 -9 -27 -19 -36
-42 -41 -36 -7 -65 10 -126 72 -35 37 -43 52 -48 97 -5 40 -3 62 9 86 9 18 16
39 16 46 0 8 9 26 20 40 11 14 20 36 20 49 0 12 10 30 22 38 27 19 21 20 66
-3z m-3895 -23 c26 -31 22 -66 -8 -74 -32 -8 -90 3 -103 19 -20 25 -23 55 -6
72 22 22 92 12 117 -17z m2172 -8 c3 -5 19 -10 35 -10 37 0 53 -28 55 -98 2
-38 8 -59 24 -76 13 -13 21 -36 21 -57 1 -28 7 -38 38 -58 29 -18 40 -21 54
-12 20 12 68 15 68 3 0 -4 14 -13 30 -20 18 -9 30 -21 30 -33 0 -12 13 -25 35
-36 19 -9 36 -24 36 -32 6 -72 2 -128 -10 -144 -38 -46 44 -20 90 29 33 36 65
30 125 -21 28 -25 56 -45 61 -45 5 0 20 -11 33 -25 29 -31 34 -78 16 -148
l-13 -52 -54 3 c-65 5 -142 47 -147 81 -2 13 -18 31 -38 43 -19 11 -44 38 -55
59 -16 33 -24 39 -52 39 -17 0 -44 8 -58 18 -58 40 -101 79 -115 105 -8 15
-21 27 -29 27 -8 0 -21 13 -29 29 -9 16 -24 31 -35 34 -11 2 -26 20 -34 39
-16 39 -80 98 -106 98 -10 0 -32 21 -52 53 -30 45 -34 60 -33 111 1 64 18 88
54 79 12 -3 22 1 26 11 7 18 20 21 29 6z m1227 -121 c22 -9 42 -35 80 -102 9
-16 25 -39 36 -51 28 -31 75 -188 68 -224 -10 -44 36 -68 122 -63 51 3 85 -16
108 -62 9 -17 20 -34 24 -37 10 -7 40 -71 40 -85 0 -6 14 -21 30 -33 17 -13
30 -29 30 -37 0 -7 15 -18 33 -24 49 -17 101 -71 205 -214 39 -54 76 -88 110
-102 17 -8 36 -25 41 -39 6 -13 15 -27 21 -31 5 -3 17 -21 24 -40 8 -18 26
-41 41 -51 28 -18 57 -66 53 -87 -4 -19 22 -59 63 -99 45 -43 53 -92 20 -122
-18 -16 -21 -15 -62 23 -24 22 -63 54 -87 71 -24 17 -57 51 -74 75 -18 25 -37
45 -44 45 -7 0 -15 9 -19 19 -3 11 -17 26 -30 35 -13 9 -41 42 -62 73 -20 32
-45 64 -55 71 -10 7 -18 19 -18 25 -1 15 -46 67 -58 67 -17 0 -77 74 -101 124
-13 26 -31 50 -40 54 -15 5 -26 14 -83 70 -13 12 -29 22 -35 22 -14 0 -123 91
-123 103 0 5 -16 28 -35 51 -19 23 -38 60 -43 81 -6 33 -13 40 -44 49 -20 6
-52 25 -70 41 -18 17 -50 43 -71 58 -45 34 -135 179 -137 220 -1 43 68 137
101 137 10 0 28 -5 41 -11z m-1673 -45 c56 -30 91 -91 97 -165 3 -36 -1 -51
-18 -69 -19 -20 -28 -22 -92 -18 -39 3 -80 11 -92 18 -21 13 -39 63 -50 143
-6 44 -4 50 27 82 41 41 67 43 128 9z m-1154 2 c11 -8 39 -19 62 -26 30 -9 55
-27 84 -62 23 -27 38 -52 35 -55 -9 -9 34 -53 51 -53 30 0 102 -63 103 -88 0
-8 7 -29 16 -48 13 -27 22 -34 46 -34 60 0 171 -84 185 -139 3 -15 12 -35 19
-46 7 -11 16 -42 20 -69 l7 -49 -54 6 c-30 4 -56 13 -61 21 -4 8 -20 17 -36
21 -62 14 -98 64 -125 176 -20 80 -26 94 -45 97 -12 2 -28 11 -35 20 -7 9 -21
22 -32 28 -11 6 -25 20 -31 32 -13 27 -109 99 -149 112 -32 11 -70 60 -81 107
-4 15 -17 35 -28 45 l-21 17 25 1 c14 0 34 -6 45 -14z m620 -36 c71 -35 95
-67 102 -143 7 -80 -5 -102 -51 -93 -33 7 -86 52 -86 73 0 7 -8 32 -18 56 -36
82 -43 110 -29 119 19 12 38 10 82 -12z m1730 -55 c19 -20 35 -42 35 -49 0 -7
17 -20 38 -28 42 -16 76 -70 70 -111 -2 -18 -9 -21 -33 -19 -56 6 -83 24 -125
83 -23 32 -45 59 -50 59 -12 0 -33 77 -25 90 13 21 55 9 90 -25z m-3057 -3
c15 -15 36 -43 47 -62 11 -19 28 -46 37 -60 23 -35 22 -40 -12 -40 -32 0 -104
31 -115 50 -4 6 -24 22 -46 36 -33 20 -39 30 -39 57 0 43 5 47 57 47 36 0 50
-6 71 -28z m392 14 c0 -2 3 -11 6 -20 5 -12 0 -16 -20 -16 -24 0 -35 18 -19
33 7 8 33 10 33 3z m5826 -47 c7 -6 18 -35 25 -65 7 -30 16 -54 20 -54 4 0 10
-9 14 -19 3 -11 15 -23 27 -26 32 -11 59 -84 52 -139 -8 -55 -22 -68 -65 -64
-26 2 -41 13 -67 48 -18 25 -50 63 -72 85 -51 52 -70 100 -70 175 0 53 3 62
23 70 25 11 95 4 113 -11z m-1908 -54 c24 -25 50 -45 56 -45 26 0 84 -66 91
-103 4 -20 11 -35 15 -32 11 7 29 -13 59 -63 23 -39 56 -62 88 -62 18 0 103
-79 103 -96 0 -10 15 -29 75 -94 8 -9 19 -38 25 -65 7 -28 16 -64 21 -81 5
-17 9 -38 9 -47 0 -9 14 -24 31 -32 17 -9 51 -32 76 -51 24 -19 51 -34 58 -34
19 0 70 -69 85 -115 7 -22 16 -42 20 -45 29 -20 66 -180 41 -180 -6 0 -17 -15
-25 -34 -8 -18 -30 -46 -49 -60 -33 -26 -41 -27 -112 -23 -104 6 -121 20 -155
128 -14 47 -37 100 -50 119 -37 53 -72 90 -86 90 -7 0 -19 6 -26 13 -7 7 -24
20 -38 28 -15 10 -32 38 -44 70 -10 30 -26 65 -36 79 -10 14 -24 41 -32 60 -9
20 -23 43 -31 52 -9 9 -25 38 -34 64 -10 26 -22 47 -28 46 -5 0 -19 7 -30 17
-11 10 -42 28 -70 40 -67 30 -81 37 -76 42 2 2 -6 23 -18 47 -12 24 -25 66
-28 93 -3 27 -10 52 -14 55 -15 9 -10 54 5 54 8 0 17 10 21 23 3 12 11 39 17
60 9 29 8 43 -2 62 -12 22 -11 27 5 45 10 11 22 20 28 20 5 0 30 -20 55 -45z
m-4888 -65 c0 -16 -4 -30 -10 -30 -5 0 -10 14 -10 30 0 17 5 30 10 30 6 0 10
-13 10 -30z m2761 -89 c39 -41 59 -71 69 -104 9 -35 18 -47 32 -47 10 0 21 -7
25 -15 6 -17 73 -55 96 -55 7 0 26 -13 42 -30 16 -16 36 -30 45 -30 17 0 77
-67 111 -124 29 -49 14 -97 -36 -115 -33 -12 -38 -10 -81 18 -25 17 -48 31
-53 31 -22 0 -121 134 -121 164 0 8 -8 21 -18 28 -11 8 -18 25 -18 43 1 22 -3
29 -14 26 -8 -2 -37 -3 -65 -2 -43 2 -55 7 -87 38 -20 20 -40 49 -43 64 -4 16
-15 31 -25 34 -25 8 -45 77 -30 105 15 28 35 36 78 32 30 -3 48 -15 93 -61z
m-1911 24 c32 -16 53 -42 69 -82 7 -17 21 -39 32 -49 37 -34 15 -45 -37 -20
-16 8 -50 24 -76 35 -31 13 -55 32 -68 53 -24 40 -25 52 -4 73 17 16 36 14 84
-10z m1345 -35 c22 -11 44 -29 50 -39 5 -11 31 -42 57 -69 51 -54 79 -110 71
-141 -6 -24 -9 -25 -51 -10 -17 6 -34 19 -37 29 -3 10 -20 24 -38 31 -45 17
-86 57 -108 104 -11 22 -26 51 -33 64 -30 51 17 68 89 31z m-1727 -77 c29 -30
60 -69 68 -88 17 -41 21 -44 75 -49 24 -3 48 -11 55 -20 6 -9 28 -24 50 -33
40 -19 83 -56 110 -99 19 -29 145 -114 169 -114 28 0 101 -57 114 -89 7 -16
19 -32 27 -35 7 -3 27 -31 43 -64 16 -32 36 -64 45 -71 9 -8 16 -20 16 -27 0
-18 -48 -30 -63 -15 -6 6 -19 11 -29 11 -11 0 -28 8 -39 18 -11 11 -38 25 -61
33 -40 13 -75 43 -183 161 -46 51 -55 56 -115 66 -53 10 -70 17 -90 42 -14 17
-30 30 -36 30 -11 0 -25 26 -58 103 -17 41 -38 53 -108 62 -27 3 -48 10 -48
15 0 5 -25 17 -55 26 -60 17 -85 38 -110 89 -22 48 -20 81 8 90 103 36 147 27
215 -42z m3485 10 c28 -5 107 -85 107 -108 0 -7 14 -19 32 -28 25 -12 35 -27
49 -70 23 -74 17 -97 -28 -97 -37 0 -113 52 -113 77 0 8 -14 20 -30 27 -40 17
-76 85 -83 160 -6 56 -5 58 16 51 12 -4 34 -9 50 -12z m-2948 -83 c3 -5 1 -10
-4 -10 -6 0 -11 5 -11 10 0 6 2 10 4 10 3 0 8 -4 11 -10z m115 -89 c0 -4 21
-14 46 -21 34 -10 48 -20 55 -39 6 -14 33 -47 61 -72 48 -45 56 -69 21 -69 -9
0 -31 11 -49 25 -18 14 -37 25 -42 25 -5 0 -22 16 -36 35 -15 19 -33 35 -40
35 -16 0 -26 22 -26 55 0 14 -7 25 -17 28 -14 4 -12 5 5 6 12 0 22 -3 22 -8z
m-1150 -36 c11 -13 10 -18 -6 -30 -10 -8 -31 -15 -46 -15 -23 0 -28 4 -28 24
0 36 56 50 80 21z m2117 -84 c34 -32 89 -106 115 -155 20 -37 22 -75 5 -97
-23 -30 -123 -30 -147 0 -3 4 -17 14 -31 23 -15 9 -30 29 -34 45 -3 15 -14 36
-22 45 -10 11 -18 44 -21 87 l-5 70 49 4 c27 2 52 4 55 5 3 1 20 -11 36 -27z
m417 18 c48 -13 129 -74 150 -114 24 -45 65 -99 82 -108 8 -5 40 -15 71 -23
49 -13 66 -24 116 -77 72 -76 97 -114 97 -149 0 -35 -10 -40 -59 -32 -29 5
-59 23 -108 64 -77 65 -118 120 -128 174 -4 20 -10 36 -14 37 -3 0 -19 2 -36
5 -16 2 -40 4 -52 4 -14 0 -36 17 -60 47 -21 26 -57 66 -80 90 -28 27 -43 51
-43 68 0 28 8 30 64 14z m1354 -22 c8 -6 30 -43 49 -81 20 -39 44 -82 54 -95
30 -38 25 -100 -10 -138 -16 -18 -41 -35 -56 -39 -36 -9 -85 7 -99 31 -6 11
-16 23 -23 28 -6 4 -17 24 -24 45 -6 20 -17 44 -24 52 -7 8 -16 36 -19 61 -6
41 -4 50 21 80 66 81 88 90 131 56z m-3601 -33 c24 -20 45 -51 58 -82 12 -34
24 -50 35 -49 26 3 233 -83 248 -104 7 -10 19 -19 27 -19 8 0 19 -17 25 -38 5
-22 20 -54 33 -73 20 -30 29 -34 70 -37 36 -2 51 -8 62 -26 12 -19 28 -25 75
-30 52 -6 63 -11 85 -40 14 -18 25 -42 25 -53 0 -11 7 -26 15 -33 10 -9 14
-28 11 -70 -3 -69 -31 -115 -75 -123 -41 -8 -132 20 -138 42 -2 10 -17 25 -33
34 -16 10 -40 31 -55 49 -23 27 -25 37 -19 72 3 23 11 50 17 61 7 13 7 20 -2
23 -6 2 -11 11 -11 19 0 9 -6 13 -14 10 -7 -3 -18 -1 -24 5 -7 7 -21 6 -44 -2
-27 -9 -40 -9 -69 4 -19 8 -41 22 -49 30 -7 9 -17 16 -22 16 -16 0 -78 52 -78
65 0 6 -9 20 -20 30 -11 10 -20 26 -20 37 0 19 -15 51 -39 81 -11 13 -29 17
-84 17 -66 0 -71 2 -102 34 -23 24 -34 48 -38 80 -15 109 61 144 150 70z
m3994 -31 c8 -9 34 -26 59 -37 68 -31 94 -56 130 -119 32 -57 86 -97 109 -82
6 3 16 -5 23 -19 6 -14 17 -26 24 -26 8 0 26 -19 40 -42 15 -24 41 -61 58 -83
18 -22 38 -59 44 -82 14 -46 27 -57 84 -67 25 -5 45 -17 60 -37 43 -57 99
-109 118 -109 14 0 38 -41 60 -102 15 -44 17 -62 9 -92 -10 -35 -11 -36 -59
-36 -39 0 -50 3 -50 16 0 9 -12 28 -26 43 -128 131 -167 185 -189 259 -4 14
-14 22 -28 22 -37 0 -132 -29 -136 -41 -2 -6 -12 -20 -22 -30 -16 -16 -19 -34
-18 -114 0 -65 5 -97 13 -102 7 -5 18 -18 25 -30 6 -13 21 -23 32 -23 33 0 79
-38 79 -65 0 -20 -6 -23 -47 -27 -31 -3 -54 0 -64 9 -8 7 -23 13 -32 13 -9 0
-30 13 -45 30 -16 16 -41 34 -56 40 -19 7 -26 15 -22 25 4 10 -3 20 -18 27
-25 11 -97 114 -111 157 -19 61 -72 125 -129 157 -22 11 -44 65 -45 104 0 14
5 41 12 60 11 32 15 34 64 37 45 3 54 1 67 -20 9 -13 20 -45 25 -73 13 -68 20
-82 41 -89 28 -9 91 5 97 22 3 7 1 47 -3 89 l-9 76 -53 29 c-29 16 -59 29 -67
29 -22 0 -45 42 -54 101 -5 30 -16 74 -24 99 -8 25 -18 62 -21 83 -6 34 -5 37
17 37 14 0 31 -7 38 -17z m-901 -68 c30 -16 95 -95 124 -152 18 -36 21 -95 6
-122 -13 -26 -114 -37 -146 -17 -12 9 -25 24 -29 35 -3 11 -15 23 -25 26 -33
10 -80 91 -80 136 0 21 4 39 10 39 5 0 16 16 24 35 13 31 19 35 51 35 20 0 49
-7 65 -15z m-991 -166 c17 -6 31 -15 31 -20 0 -5 6 -9 14 -9 26 0 84 -41 105
-73 34 -53 38 -61 49 -94 17 -54 -9 -68 -120 -64 -30 1 -131 89 -155 135 -16
30 -27 111 -18 127 8 12 55 11 94 -2z m-823 -26 c-10 -10 -19 5 -10 18 6 11 8
11 12 0 2 -7 1 -15 -2 -18z m35 -53 c27 -15 24 -40 -5 -40 -26 0 -51 24 -41
40 8 13 21 13 46 0z m404 -10 c11 -17 -5 -32 -21 -19 -7 6 -11 15 -8 20 7 12
21 11 29 -1z m1598 -58 c15 -6 30 -19 34 -28 3 -8 16 -20 30 -25 13 -5 27 -19
32 -33 6 -13 23 -30 39 -37 16 -7 38 -25 48 -41 11 -15 22 -28 27 -28 14 0 7
-77 -8 -90 -22 -18 -121 -6 -147 17 -36 32 -66 96 -83 178 -29 136 -28 132
-13 115 7 -8 26 -21 41 -28z m-2105 -59 c12 -23 22 -102 15 -119 -7 -20 -24
-17 -55 10 -32 28 -61 83 -54 101 4 13 27 20 68 24 10 0 21 -7 26 -16z m382
-82 c0 -5 17 -16 38 -26 44 -21 62 -41 62 -71 0 -31 -19 -40 -83 -36 -50 3
-56 7 -67 32 -16 39 3 110 30 110 11 0 20 -4 20 -9z m925 -33 c17 -9 51 -42
75 -74 25 -32 63 -76 85 -98 55 -56 87 -104 83 -124 -7 -35 -37 -22 -100 40
-38 38 -79 69 -103 77 -22 8 -56 27 -76 42 -20 16 -41 29 -47 29 -16 0 -52 69
-52 100 0 19 6 30 18 32 25 6 83 -6 117 -24z m-2445 6 c24 -5 39 -18 62 -55
16 -27 35 -52 41 -56 23 -15 69 -92 62 -103 -5 -7 -19 -10 -37 -6 -34 7 -107
56 -108 72 0 6 -13 17 -29 24 -34 13 -81 63 -81 84 0 18 27 46 44 46 8 0 28
-3 46 -6z m5569 -33 c17 -16 31 -37 31 -46 0 -20 29 -85 46 -102 7 -7 17 -35
24 -62 13 -56 2 -91 -30 -91 -10 0 -31 -12 -47 -26 -18 -16 -34 -23 -48 -20
-11 3 -26 6 -32 6 -7 0 -13 6 -13 13 0 8 -11 24 -25 37 -36 33 -47 80 -48 191
0 116 7 129 68 129 34 0 50 -6 74 -29z m913 -54 c7 -7 29 -22 48 -34 20 -12
45 -39 57 -60 22 -40 19 -55 -17 -110 -19 -30 -76 -31 -105 -3 -11 11 -31 28
-43 38 -20 15 -24 27 -25 77 -1 83 8 105 43 105 16 0 35 -6 42 -13z m-5031
-34 c1 -16 1 -119 0 -141 -1 -13 -7 -22 -13 -20 -7 1 -23 -2 -36 -6 -19 -6
-30 -1 -63 32 -54 56 -54 109 1 131 30 12 110 14 111 4z m-1808 -41 c16 -14
16 -16 1 -34 -23 -24 -35 -22 -58 9 -18 25 -18 26 -1 39 19 14 28 12 58 -14z
m5387 -17 c16 -8 42 -32 57 -52 15 -21 31 -40 35 -43 3 -3 9 -21 13 -41 7 -39
-8 -60 -28 -40 -6 6 -26 11 -43 11 -55 0 -82 34 -90 113 -7 75 -1 81 56 52z
m-4024 -13 c6 -4 14 -19 17 -33 4 -14 15 -36 26 -48 27 -32 46 -126 32 -158
-10 -23 -16 -24 -79 -22 -37 2 -77 6 -88 10 -33 12 -64 70 -64 121 0 39 6 52
41 92 32 37 47 46 72 46 18 0 37 -4 43 -8z m2665 -35 c33 -25 52 -66 45 -99
-9 -44 -24 -58 -61 -58 -27 0 -39 8 -62 38 -17 20 -33 45 -36 55 -10 27 2 65
21 70 33 9 77 6 93 -6z m-3319 -37 c25 -7 39 -19 47 -38 6 -15 25 -51 42 -81
39 -70 20 -88 -66 -62 -43 13 -121 95 -132 139 -11 47 31 63 109 42z m1569
-19 c29 -30 38 -72 20 -100 -11 -17 -94 -7 -111 14 -19 23 -30 76 -19 96 16
31 74 25 110 -10z m-2054 -15 c4 -7 24 -22 44 -32 67 -36 128 -79 129 -92 0
-16 90 -102 107 -102 38 0 167 -154 161 -192 -3 -20 -8 -23 -46 -20 -45 3 -95
28 -117 59 -7 11 -49 40 -93 66 -44 26 -85 54 -92 62 -7 8 -37 26 -68 40 -88
40 -102 58 -102 127 0 40 5 64 17 78 20 23 48 26 60 6z m1395 -241 c15 -6 38
-53 38 -77 0 -5 -12 -13 -26 -19 -21 -7 -31 -6 -46 8 -11 10 -17 25 -14 36 2
11 -3 23 -15 30 -30 19 -23 36 14 33 17 -2 40 -7 49 -11z m-2197 -19 c26 -11
35 -21 35 -38 -1 -42 -21 -57 -69 -51 -48 7 -56 18 -47 68 8 40 25 44 81 21z
m1720 -66 c58 -59 55 -79 -14 -94 -37 -8 -44 -6 -67 15 -14 13 -35 41 -46 62
-24 48 -12 67 41 67 31 0 45 -8 86 -50z m-1015 -70 c0 -5 -4 -10 -9 -10 -6 0
-13 5 -16 10 -3 6 1 10 9 10 9 0 16 -4 16 -10z m-123 -376 c19 -26 16 -44 -8
-44 -11 0 -34 -9 -50 -21 -29 -20 -30 -20 -62 -2 -20 12 -33 28 -35 44 -2 20
3 27 30 36 45 15 109 8 125 -13z m-315 -15 c14 -8 28 -7 49 2 23 9 33 9 42 0
6 -6 19 -11 29 -11 10 0 18 -7 18 -15 0 -11 -12 -15 -44 -15 -24 0 -56 -2 -72
-5 -37 -7 -88 29 -64 45 19 12 17 12 42 -1z m-448 -5 c13 -5 13 -8 1 -20 -13
-13 -35 -19 -35 -10 0 8 12 36 15 36 2 0 10 -3 19 -6z m263 -20 c-3 -3 -12 -4
-19 -1 -8 3 -5 6 6 6 11 1 17 -2 13 -5z m208 -124 c-3 -5 -10 -10 -16 -10 -5
0 -9 5 -9 10 0 6 7 10 16 10 8 0 12 -4 9 -10z"/>
<path d="M18035 12947 c-8 -28 -3 -42 12 -36 5 2 6 18 2 34 l-6 30 -8 -28z"/>
<path d="M11955 16364 c-25 -13 -33 -26 -43 -68 -7 -28 -12 -61 -12 -73 0 -12
-4 -25 -10 -28 -17 -11 -11 -62 13 -107 20 -40 22 -56 22 -220 l0 -178 42 -41
c39 -39 44 -42 75 -33 22 6 38 20 47 39 19 41 58 81 93 96 24 10 40 10 80 0
45 -12 50 -12 63 5 8 11 15 29 15 42 0 27 -38 82 -57 82 -23 0 -63 51 -63 81
0 15 7 55 16 90 13 51 14 63 2 70 -24 16 -35 10 -78 -41 -33 -39 -49 -50 -72
-50 -40 0 -65 15 -83 50 -19 36 -19 64 0 137 8 31 15 81 15 110 0 59 -9 65
-65 37z m157 -478 c25 -19 39 -61 25 -75 -16 -16 -92 -14 -107 3 -18 22 -8 59
20 73 31 16 41 16 62 -1z"/>
<path d="M13155 16358 c-22 -12 -45 -37 -45 -50 0 -5 11 -13 25 -18 22 -8 24
-13 15 -29 -8 -17 -6 -22 12 -32 29 -15 58 -45 58 -59 0 -6 11 -16 25 -22 37
-17 33 -55 -9 -93 -35 -31 -66 -83 -66 -110 0 -8 6 -24 12 -35 10 -16 8 -29
-16 -77 -21 -44 -30 -81 -37 -153 -4 -52 -8 -96 -9 -97 -1 -9 -78 -73 -87 -73
-7 0 -16 -12 -19 -27 -4 -16 -18 -45 -31 -67 -24 -38 -26 -38 -66 -30 -55 11
-184 11 -222 0 -16 -4 -50 -11 -75 -15 -36 -5 -45 -10 -45 -26 0 -13 6 -20 18
-19 11 1 17 -5 17 -17 0 -24 27 -36 43 -20 20 20 33 12 77 -43 36 -46 49 -55
84 -59 49 -7 73 -32 121 -133 36 -76 47 -84 116 -84 22 0 49 -9 70 -25 19 -13
45 -32 59 -42 14 -9 35 -26 48 -37 21 -19 22 -19 22 -1 0 37 -42 106 -83 135
-67 46 -83 71 -102 147 -21 85 -13 117 39 156 51 40 96 90 96 108 0 9 7 33 15
52 8 20 20 69 25 109 14 96 16 101 42 113 44 19 60 74 62 214 1 87 -3 133 -11
142 -16 20 -19 79 -6 104 12 22 16 53 14 100 -2 39 -42 71 -70 56 -14 -8 -22
-7 -31 4 -7 8 -21 15 -31 15 -16 0 -18 5 -13 25 7 28 -7 32 -41 13z"/>
<path d="M12446 16255 c-15 -8 -35 -15 -42 -15 -29 0 -54 -39 -54 -84 0 -34 7
-52 35 -87 19 -24 35 -51 35 -59 0 -27 22 -40 65 -40 34 0 48 7 83 40 26 26
43 52 48 75 9 48 -3 105 -22 105 -9 0 -34 18 -56 40 -46 45 -51 46 -92 25z"/>
<path d="M28555 15592 c-6 -5 -37 -17 -70 -26 -33 -10 -71 -21 -83 -25 l-24
-7 24 -11 c12 -6 36 -14 51 -18 22 -4 27 -10 22 -25 -4 -12 -2 -20 4 -20 6 0
11 6 11 14 0 15 34 31 48 22 12 -7 86 20 90 34 4 11 -45 70 -58 70 -3 0 -10
-4 -15 -8z"/>
<path d="M28217 15537 c-51 -33 -97 -84 -92 -99 10 -26 35 -30 103 -17 52 11
67 18 85 43 12 17 30 38 41 47 20 16 19 17 -9 22 -74 14 -111 16 -128 4z"/>
<path d="M28880 15375 c-6 -8 -14 -32 -17 -54 -5 -37 -3 -41 21 -51 15 -5 36
-10 46 -10 27 0 102 73 94 93 -12 33 -121 50 -144 22z"/>
<path d="M29862 15353 c2 -11 43 -38 108 -71 58 -29 107 -60 110 -68 9 -23
122 -75 137 -63 7 6 17 8 22 5 6 -4 17 6 24 21 11 19 23 27 42 28 22 0 30 7
42 38 14 35 14 40 0 54 -14 14 -20 14 -61 -3 -25 -11 -46 -23 -46 -29 0 -5 -7
0 -15 11 -10 15 -30 23 -65 28 -44 6 -97 24 -162 57 -10 5 -45 9 -79 9 -52 0
-60 -2 -57 -17z m428 -99 c0 -17 -22 -14 -28 4 -2 7 3 12 12 12 9 0 16 -7 16
-16z"/>
<path d="M27861 15337 c-14 -18 -4 -27 29 -27 28 0 55 21 43 33 -11 12 -60 7
-72 -6z"/>
<path d="M13808 15246 c-28 -58 -19 -71 59 -92 7 -2 24 -22 39 -45 14 -23 48
-63 74 -89 61 -57 69 -87 41 -140 -12 -22 -21 -49 -21 -58 0 -10 -5 -23 -12
-30 -9 -9 -9 -17 1 -36 16 -29 41 -24 41 9 0 23 28 55 48 55 7 0 12 5 12 11 0
14 99 113 129 128 52 28 -9 139 -79 145 -60 5 -94 18 -118 42 -13 13 -31 24
-40 24 -19 0 -75 34 -67 41 9 9 -54 69 -73 69 -11 0 -25 -13 -34 -34z"/>
<path d="M28245 15265 c-22 -8 -48 -15 -57 -15 -39 0 -37 -160 1 -192 19 -14
35 -16 100 -11 58 4 84 2 106 -9 17 -9 62 -23 100 -33 39 -9 73 -21 76 -26 3
-5 48 -16 100 -25 62 -10 106 -23 129 -38 19 -13 68 -36 108 -51 39 -15 72
-30 72 -34 0 -5 19 -15 41 -24 30 -12 40 -21 35 -32 -8 -21 70 -73 86 -57 13
13 57 16 74 4 5 -4 16 -21 23 -39 10 -24 10 -36 1 -53 -31 -58 85 -46 245 26
17 7 51 20 77 30 32 11 50 24 57 43 6 14 25 35 41 46 17 11 30 24 30 28 0 10
-124 -2 -158 -14 -13 -5 -36 -9 -52 -9 -37 0 -129 36 -156 61 -11 10 -27 19
-36 19 -9 0 -29 12 -46 28 -55 50 -76 66 -92 67 -8 1 -27 9 -41 18 -14 9 -57
21 -95 26 -137 18 -189 64 -189 168 0 89 -9 96 -115 82 -64 -8 -87 -15 -98
-30 -16 -23 -57 -25 -66 -3 -3 8 -10 12 -16 9 -6 -4 -8 -11 -5 -16 4 -5 -1 -9
-9 -9 -9 0 -16 4 -16 10 0 5 -30 23 -66 40 -74 33 -126 37 -189 15z"/>
<path d="M13697 15091 c-10 -3 -23 -18 -30 -31 -7 -14 -21 -26 -32 -28 -62
-12 -124 -162 -66 -162 34 0 130 76 131 104 0 5 6 17 14 25 8 9 17 35 21 59 7
44 2 49 -38 33z"/>
<path d="M26900 14949 c0 -5 5 -7 10 -4 6 3 10 8 10 11 0 2 -4 4 -10 4 -5 0
-10 -5 -10 -11z"/>
<path d="M14625 14911 c-7 -12 12 -24 25 -16 11 7 4 25 -10 25 -5 0 -11 -4
-15 -9z"/>
<path d="M30195 14902 c-18 -13 -45 -61 -45 -81 0 -12 -23 -40 -55 -67 -30
-26 -55 -54 -55 -61 0 -20 45 -45 71 -38 13 3 44 24 68 45 24 22 53 40 64 42
10 2 33 22 50 46 l31 43 -34 33 c-36 34 -77 51 -95 38z"/>
<path d="M13256 14849 c-13 -19 -13 -26 -3 -38 7 -9 21 -43 31 -76 19 -64 51
-142 69 -163 22 -27 75 56 91 143 9 49 24 77 36 70 12 -7 33 33 26 50 -3 8
-13 14 -23 14 -86 3 -181 10 -194 16 -11 4 -22 -1 -33 -16z"/>
<path d="M27318 14833 c-27 -54 20 -138 82 -149 39 -7 73 -25 111 -61 14 -13
30 -23 35 -21 5 1 21 -6 35 -15 15 -10 48 -19 73 -21 48 -2 54 -7 113 -84 15
-19 28 -23 83 -25 37 -1 78 4 96 12 26 12 34 12 60 -2 16 -9 53 -28 82 -42 28
-15 52 -32 52 -40 0 -8 32 -18 95 -30 52 -9 95 -20 95 -23 0 -4 14 -22 30 -41
17 -18 35 -52 41 -75 15 -56 36 -92 51 -87 7 1 34 9 60 15 25 7 60 25 78 39
17 15 37 27 45 27 7 0 18 7 25 15 17 21 2 37 -78 82 -36 20 -89 60 -118 89
-31 31 -67 57 -88 62 -19 6 -49 20 -65 31 -16 12 -40 21 -53 21 -12 0 -39 4
-58 9 -19 5 -61 14 -92 21 -32 7 -58 17 -58 21 0 4 -28 10 -62 13 -35 4 -102
12 -149 18 -81 10 -86 12 -86 34 0 27 -19 54 -38 54 -7 0 -15 6 -18 14 -5 13
-57 28 -104 31 -27 1 -53 23 -53 45 0 14 -67 55 -91 55 -4 0 -11 3 -15 8 -4 4
-31 7 -60 7 -29 0 -54 -3 -56 -7z"/>
<path d="M13910 14780 c0 -5 7 -10 16 -10 8 0 12 5 9 10 -3 6 -10 10 -16 10
-5 0 -9 -4 -9 -10z"/>
<path d="M13878 14730 c-20 -11 -50 -37 -67 -57 -26 -31 -31 -46 -29 -78 2
-32 8 -41 28 -48 26 -9 50 -2 105 31 22 14 32 31 43 72 24 97 -1 122 -80 80z"/>
<path d="M25888 14573 c-24 -3 -38 -9 -38 -18 0 -8 -8 -18 -17 -24 -31 -17 -4
-26 90 -28 122 -4 137 0 137 36 0 17 -6 31 -16 35 -16 6 -91 6 -156 -1z"/>
<path d="M25540 14513 c-8 -3 -19 -12 -23 -19 -4 -8 -14 -14 -21 -14 -18 0
-40 -29 -55 -74 -16 -47 -10 -52 66 -62 40 -5 52 -11 56 -26 5 -16 10 -18 29
-12 13 4 30 7 38 5 112 -17 251 -6 235 19 -3 6 4 10 17 10 14 0 33 6 44 14 19
14 19 15 -2 42 -25 34 -94 54 -176 52 -41 -1 -63 4 -83 18 -67 48 -95 58 -125
47z"/>
<path d="M29946 14468 c-9 -12 -16 -33 -16 -46 0 -21 2 -22 15 -9 8 9 19 17
25 19 14 5 17 50 3 55 -6 2 -18 -6 -27 -19z"/>
<path d="M14055 14419 c-108 -12 -194 -70 -183 -121 2 -9 -8 -25 -22 -37 l-25
-22 55 6 c30 3 64 12 75 19 13 8 43 11 85 9 54 -4 69 -9 88 -29 27 -31 28 -62
1 -113 -28 -54 -19 -74 38 -90 l46 -14 29 32 c24 26 28 40 28 87 0 35 -8 72
-22 102 -12 26 -24 76 -27 112 l-6 65 -45 1 c-25 1 -77 -2 -115 -7z"/>
<path d="M23995 14410 c-6 -9 22 -40 36 -40 5 0 9 8 9 19 0 19 -36 36 -45 21z"/>
<path d="M29717 14403 c-4 -3 -7 -15 -7 -25 0 -22 -58 -83 -88 -92 -21 -7 -74
14 -100 40 -8 9 -36 14 -72 14 -49 0 -58 -3 -63 -20 -3 -12 -14 -20 -25 -20
-12 0 -27 -9 -35 -21 -15 -21 -56 -47 -115 -75 -26 -11 -31 -18 -23 -28 7 -9
7 -16 -1 -24 -9 -9 -6 -18 11 -36 19 -20 21 -28 12 -45 -7 -12 -15 -21 -19
-21 -12 0 -42 -56 -42 -78 0 -11 -7 -25 -15 -32 -10 -9 -12 -17 -5 -30 12 -22
4 -30 -33 -30 -22 0 -40 -12 -74 -47 -40 -43 -43 -48 -24 -51 12 -2 28 4 37
12 8 9 24 16 33 16 10 0 24 7 32 16 8 10 22 14 39 10 33 -6 92 27 84 47 -3 8
6 21 20 31 15 9 26 23 26 31 0 7 9 17 20 20 11 4 27 18 34 33 8 15 36 37 63
51 88 42 98 50 103 73 4 14 15 25 31 28 13 3 41 18 62 34 21 16 49 28 65 28
40 -1 111 30 118 51 4 12 12 17 24 14 25 -6 74 27 80 55 4 14 15 24 27 26 12
2 26 9 32 16 9 11 -1 14 -55 14 -36 0 -71 5 -77 11 -12 12 -69 15 -80 4z"/>
<path d="M25375 14390 c-3 -5 -21 -10 -39 -10 -60 0 -166 -104 -137 -133 6 -6
25 -11 43 -12 18 -1 41 -5 51 -10 19 -8 57 18 57 40 0 6 11 18 25 25 30 16 31
25 8 39 -17 10 -16 12 5 29 20 16 22 20 9 31 -10 8 -17 9 -22 1z"/>
<path d="M25977 14383 c-14 -13 -6 -22 21 -25 21 -2 27 -8 25 -25 -2 -14 4
-24 18 -28 29 -9 37 3 32 48 -5 36 -6 37 -47 37 -24 0 -46 -3 -49 -7z"/>
<path d="M24858 14259 c-30 -22 -38 -68 -15 -87 17 -14 224 -24 232 -12 3 5
-1 21 -10 34 -9 14 -14 29 -11 34 3 5 -15 18 -40 30 -57 28 -120 28 -156 1z"/>
<path d="M26107 14262 c-24 -5 -16 -26 11 -30 14 -2 22 2 22 12 0 18 -10 24
-33 18z"/>
<path d="M26180 14230 c0 -5 7 -10 15 -10 8 0 15 5 15 10 0 6 -7 10 -15 10 -8
0 -15 -4 -15 -10z"/>
<path d="M26240 14231 c0 -22 22 -66 40 -78 11 -8 20 -20 20 -27 0 -28 39 -49
90 -48 28 0 50 -2 50 -6 0 -15 87 -99 123 -120 22 -13 55 -22 78 -22 22 0 58
-9 80 -21 23 -11 47 -18 55 -15 9 3 19 -3 25 -17 11 -24 96 -70 120 -65 8 2
14 -4 14 -13 0 -9 6 -24 14 -33 7 -8 11 -22 7 -31 -18 -48 139 -47 167 1 4 8
19 14 32 14 35 0 94 30 100 51 7 21 -11 59 -27 59 -25 0 -97 42 -113 66 -20
31 -73 64 -102 64 -12 0 -69 25 -127 55 -58 30 -115 55 -126 55 -12 0 -33 9
-47 20 -18 14 -41 20 -77 20 -102 1 -187 17 -202 39 -9 13 -31 22 -62 26 -26
4 -57 13 -69 21 -25 16 -63 19 -63 5z"/>
<path d="M13417 14093 c-4 -38 -7 -125 -7 -195 0 -74 -4 -129 -10 -133 -5 -3
-10 -13 -10 -21 0 -8 -20 -39 -45 -70 -48 -59 -55 -90 -32 -149 35 -89 73
-119 143 -113 56 4 68 33 53 130 -6 40 -17 87 -24 103 -23 53 -25 78 -7 114
24 51 25 240 0 264 -9 9 -19 30 -22 47 -3 16 -9 44 -12 60 -9 50 -21 34 -27
-37z"/>
<path d="M24609 14100 c-26 -4 -58 -14 -73 -22 -25 -13 -25 -15 -10 -37 15
-20 21 -22 68 -16 77 10 114 24 122 47 11 36 -16 43 -107 28z"/>
<path d="M10311 14024 c0 -11 3 -14 6 -6 3 7 2 16 -1 19 -3 4 -6 -2 -5 -13z"/>
<path d="M28806 13995 c-11 -8 -27 -15 -36 -15 -10 0 -32 -14 -51 -30 -76 -68
-104 -85 -149 -95 -19 -4 -41 -11 -50 -16 -8 -4 -22 -10 -30 -12 -8 -2 -21
-21 -29 -42 -13 -36 -12 -39 8 -54 23 -18 20 -51 -4 -51 -7 0 -18 -7 -25 -15
-7 -9 -18 -14 -24 -12 -17 6 -46 -12 -46 -28 0 -8 7 -15 15 -15 16 0 21 -25 6
-34 -9 -6 -75 -15 -164 -23 -43 -4 -64 -1 -82 11 -17 12 -30 13 -42 7 -10 -5
-26 -12 -36 -15 -29 -9 -17 -49 20 -66 44 -20 43 -48 -2 -55 -19 -3 -51 -8
-71 -11 -28 -4 -41 -1 -58 14 -31 29 -91 52 -107 41 -8 -5 -27 -9 -43 -9 -44
0 -91 -20 -102 -43 -12 -28 -62 -55 -101 -56 -17 -1 -35 -6 -38 -11 -4 -6 -23
-17 -43 -26 -20 -8 -49 -28 -64 -45 -20 -21 -36 -29 -62 -29 -19 0 -50 -6 -68
-14 -18 -8 -52 -20 -76 -27 -23 -7 -47 -18 -53 -26 -6 -7 -20 -13 -31 -13 -11
0 -34 -11 -52 -25 -22 -16 -55 -28 -106 -36 -89 -13 -96 -17 -149 -70 -29 -30
-53 -44 -83 -50 -62 -12 -127 -11 -164 3 -29 10 -36 9 -54 -7 -11 -10 -20 -24
-20 -31 0 -39 -24 -62 -88 -83 -147 -48 -157 -49 -224 -6 -33 21 -47 37 -48
52 0 35 -33 45 -118 40 -88 -6 -138 -17 -167 -35 -19 -11 -18 -13 19 -44 36
-30 45 -32 117 -33 74 -2 109 -13 109 -37 0 -5 -8 -11 -17 -15 -10 -3 -25 -12
-34 -19 -20 -18 -100 -36 -170 -38 -30 -2 -60 -6 -66 -9 -18 -11 -25 25 -8 43
22 24 19 40 -7 40 -13 0 -34 9 -48 20 -21 16 -41 20 -122 20 l-96 0 -22 -35
c-20 -32 -20 -36 -6 -51 9 -8 16 -19 16 -24 0 -4 13 -13 29 -18 16 -6 35 -20
41 -32 10 -19 8 -26 -17 -50 -55 -53 -98 -44 -127 26 -9 20 -38 47 -84 77 -64
42 -77 47 -129 47 -101 0 -163 -40 -163 -106 0 -13 -4 -26 -10 -29 -6 -4 -10
6 -10 23 0 33 -26 51 -34 24 -2 -9 -8 -37 -11 -62 -4 -25 -12 -48 -18 -51 -5
-4 -7 -15 -3 -25 7 -17 11 -14 38 19 32 39 48 47 48 22 0 -17 21 -20 36 -5 8
8 28 -3 69 -36 53 -43 57 -49 52 -80 -3 -19 -1 -36 4 -39 13 -9 11 -42 -5 -68
-7 -12 -16 -37 -19 -54 -8 -39 11 -53 71 -53 38 0 72 22 72 47 0 22 59 32 183
30 117 -2 127 -1 127 16 0 46 72 106 130 107 50 1 130 -11 136 -21 3 -5 16 -9
28 -9 15 0 26 -7 29 -20 3 -11 12 -20 21 -20 25 0 39 39 33 94 -7 60 7 86 46
86 14 0 36 4 49 9 13 5 31 12 42 15 13 5 15 10 8 19 -15 18 3 53 37 73 17 10
31 21 31 24 0 7 75 4 87 -3 4 -3 54 -8 110 -12 80 -5 109 -3 135 8 18 8 65 18
105 20 60 5 74 3 87 -12 9 -10 16 -22 16 -28 0 -15 -44 -53 -63 -53 -9 0 -19
-4 -22 -10 -3 -5 -17 -10 -31 -10 -14 0 -34 -5 -45 -11 -15 -7 -24 -7 -34 1
-8 6 -22 10 -32 8 -14 -3 -18 -13 -18 -48 l0 -44 -70 -18 c-71 -19 -115 -52
-115 -88 0 -17 -62 -80 -79 -80 -15 0 -51 -41 -51 -58 0 -12 11 -13 57 -7 79
10 97 18 121 59 12 20 32 38 46 42 15 3 26 12 26 20 0 7 13 20 30 29 17 9 36
31 45 51 8 19 22 42 30 51 9 9 14 24 12 34 -8 30 12 33 33 6 37 -47 208 -45
253 4 10 10 21 19 26 19 4 0 20 11 35 25 14 13 26 19 26 12 0 -9 2 -9 8 1 8
12 107 42 142 42 11 0 24 9 30 20 6 12 21 25 33 31 33 14 91 50 97 59 3 5 27
18 53 29 27 12 46 25 43 29 -3 5 31 24 75 42 44 19 85 40 91 47 6 7 16 13 22
13 6 0 19 14 28 31 10 17 22 27 28 24 6 -4 24 5 41 19 17 14 34 26 39 26 4 0
13 13 18 30 12 33 89 86 162 110 36 12 46 20 48 41 3 23 10 28 58 39 48 12 59
11 90 -3 19 -9 40 -28 46 -42 6 -14 22 -28 35 -32 30 -7 73 11 73 32 0 8 20
36 45 62 25 25 45 52 45 58 0 16 36 47 95 80 28 16 74 50 103 77 30 26 61 48
71 48 10 0 27 10 39 23 17 18 21 33 19 77 -2 48 0 55 16 52 12 -2 19 6 23 28
4 17 11 33 15 36 5 3 9 16 9 29 0 15 18 41 52 74 54 52 83 112 65 130 -15 15
-38 13 -61 -4z m-923 -636 c20 -11 43 -38 39 -48 -2 -8 -77 -31 -100 -31 -53
0 -72 61 -24 78 37 14 59 14 85 1z m-567 -321 c-4 -13 -9 -35 -13 -51 -8 -39
-59 -61 -118 -53 -61 10 -58 27 13 73 67 45 81 51 106 52 14 1 17 -4 12 -21z
m-346 -216 c0 -5 -6 -16 -13 -27 -10 -13 -21 -16 -41 -11 -29 7 -26 22 8 36
27 11 46 12 46 2z"/>
<path d="M10176 13827 c-45 -58 -27 -156 38 -219 13 -13 29 -45 36 -73 15 -63
50 -135 72 -149 12 -7 24 -6 43 2 25 11 27 16 22 60 -2 26 -7 57 -10 70 -9 36
-47 92 -63 92 -7 0 -28 13 -45 28 -29 26 -31 32 -30 91 0 55 -19 131 -33 131
-3 0 -16 -15 -30 -33z"/>
<path d="M16280 13848 c-109 -12 -134 -24 -138 -65 -5 -51 28 -61 221 -64 134
-3 167 -1 182 11 10 8 34 15 54 15 27 0 38 5 48 25 6 13 9 27 4 30 -4 3 -10
13 -14 22 -13 37 -162 48 -357 26z"/>
<path d="M27814 13831 c-25 -4 -58 -21 -86 -44 -25 -20 -55 -37 -67 -37 -14 0
-21 -6 -21 -19 0 -10 -7 -24 -15 -31 -35 -29 -4 -60 59 -60 55 0 139 21 161
40 11 9 27 20 37 23 14 5 78 87 78 101 0 2 -7 12 -16 20 -16 17 -57 19 -130 7z"/>
<path d="M16675 13750 c3 -5 13 -10 21 -10 8 0 12 5 9 10 -3 6 -13 10 -21 10
-8 0 -12 -4 -9 -10z"/>
<path d="M15639 13739 c-12 -7 -12 -9 1 -9 13 0 13 -2 0 -9 -8 -6 -18 -7 -22
-4 -13 8 -38 -17 -38 -38 0 -16 8 -19 50 -19 57 0 74 17 56 56 -13 28 -28 35
-47 23z"/>
<path d="M28913 13738 c-30 -14 -29 -28 1 -28 36 0 55 10 49 26 -6 16 -19 17
-50 2z"/>
<path d="M24253 13683 c-17 -6 -16 -75 1 -141 18 -66 28 -78 70 -86 23 -4 43
-18 61 -42 15 -19 32 -33 38 -31 16 5 27 89 15 104 -16 20 -45 81 -52 108 -3
13 -19 31 -34 39 -15 8 -35 24 -44 35 -18 21 -31 24 -55 14z"/>
<path d="M27480 13610 c-8 -5 -27 -10 -41 -10 -32 0 -93 -39 -97 -63 -3 -13 3
-17 25 -17 27 1 110 39 86 40 -7 0 -13 5 -13 10 0 7 6 8 16 2 32 -18 75 12 58
39 -7 11 -15 11 -34 -1z"/>
<path d="M14237 13498 c-32 -56 -55 -142 -63 -229 -7 -98 1 -111 53 -79 30 18
30 18 35 136 3 66 3 138 -1 161 l-6 43 -18 -32z"/>
<path d="M27258 13480 c-7 -4 -36 -11 -65 -15 -28 -4 -60 -13 -70 -21 -17 -14
-17 -15 1 -29 22 -17 72 -19 131 -5 38 9 65 32 65 56 0 14 -43 24 -62 14z"/>
<path d="M26918 13360 c-32 -10 -88 -48 -88 -60 0 -5 16 -17 36 -26 30 -14 41
-15 75 -5 21 6 39 16 39 21 0 5 9 12 20 15 24 8 27 50 4 59 -20 8 -52 6 -86
-4z"/>
<path d="M26710 13245 c-14 -8 -44 -24 -68 -36 -24 -11 -46 -27 -49 -35 -3 -8
-11 -14 -19 -14 -8 0 -14 -5 -14 -11 0 -8 23 -10 75 -7 59 4 83 11 115 32 45
30 50 48 18 70 -27 19 -27 19 -58 1z"/>
<path d="M10404 13226 c-7 -17 48 -101 71 -109 8 -4 15 -15 15 -25 0 -32 166
-212 196 -212 8 0 26 -12 40 -27 29 -31 125 -67 206 -77 69 -9 98 -1 98 25 0
16 -7 19 -45 19 -26 0 -59 7 -75 15 -15 8 -42 16 -59 17 -17 1 -31 7 -31 12 0
28 -57 88 -105 111 -54 25 -105 75 -105 101 0 34 -49 93 -99 118 -18 10 -35
24 -38 32 -7 18 -62 18 -69 0z"/>
<path d="M9984 13210 c-12 -5 -68 -9 -125 -9 -336 -2 -366 -3 -417 -17 -50
-15 -62 -34 -22 -34 10 0 22 -4 25 -10 3 -5 13 -10 21 -10 8 0 28 -10 44 -22
27 -20 33 -20 85 -9 30 7 57 17 60 22 4 5 18 9 32 9 15 0 41 5 59 12 38 14 77
1 127 -43 36 -32 68 -37 88 -13 7 9 29 23 48 32 81 38 57 125 -25 92z"/>
<path d="M8400 13201 c-35 -11 -127 -59 -132 -68 -7 -17 -97 -40 -160 -41 -63
0 -118 -18 -133 -43 -10 -15 24 -99 39 -99 7 0 19 11 26 25 15 29 82 75 108
75 10 0 23 5 28 10 8 8 20 7 40 0 16 -6 45 -8 64 -5 19 4 87 10 151 15 104 6
124 11 185 41 56 28 70 39 72 60 3 23 -1 27 -35 32 -52 9 -222 7 -253 -2z"/>
<path d="M14093 13118 c-13 -6 -28 -29 -37 -55 -11 -32 -36 -64 -97 -121 -45
-42 -87 -79 -94 -82 -24 -9 -75 -60 -75 -75 0 -21 35 -36 67 -29 33 8 113 70
113 88 0 7 12 19 26 26 14 8 35 27 46 42 10 15 25 28 33 28 12 0 31 46 51 125
15 61 8 73 -33 53z"/>
<path d="M12245 13088 c4 -18 18 -59 31 -90 13 -32 24 -73 24 -92 0 -43 16
-86 32 -86 20 0 76 -43 87 -68 7 -14 8 -57 4 -112 -7 -100 -26 -144 -70 -161
-53 -21 -58 -26 -83 -74 -27 -51 -38 -60 -82 -70 -41 -8 -98 -62 -98 -92 0
-22 -3 -24 -24 -19 -17 4 -25 1 -30 -12 -3 -9 -9 -23 -12 -30 -5 -10 4 -13 37
-10 35 2 44 7 43 21 -1 9 3 18 10 19 117 15 153 37 221 133 11 16 29 40 41 54
11 14 26 40 33 58 7 18 21 35 32 38 24 8 49 59 49 101 0 19 -5 65 -12 103 -8
49 -9 90 -2 139 12 87 6 113 -30 130 -15 8 -32 25 -39 39 -19 42 -72 93 -108
103 -56 16 -61 14 -54 -22z"/>
<path d="M26391 13100 c-53 -6 -69 -12 -88 -34 -13 -15 -21 -31 -18 -36 5 -9
58 -18 150 -25 33 -3 67 -8 77 -10 9 -3 20 0 24 6 11 19 11 93 -1 101 -12 9
-54 8 -144 -2z"/>
<path d="M10142 12938 c-27 -27 -1 -111 39 -123 30 -10 34 -1 20 57 -16 72
-34 91 -59 66z"/>
<path d="M14575 12910 c-4 -6 -12 -10 -18 -9 -35 4 -47 -2 -47 -26 0 -15 6
-25 14 -25 14 0 28 -30 42 -93 13 -57 28 -50 36 18 12 95 -4 173 -27 135z"/>
<path d="M8920 12871 c0 -22 4 -50 9 -63 5 -13 14 -42 20 -65 7 -24 17 -43 23
-43 16 0 37 -32 38 -58 0 -15 11 -29 30 -40 16 -9 30 -21 30 -25 0 -4 17 -25
38 -46 20 -21 46 -49 58 -62 11 -13 42 -42 69 -64 26 -22 61 -54 77 -72 16
-17 41 -34 55 -38 14 -3 47 -16 74 -29 42 -21 50 -22 61 -9 19 23 -9 64 -62
90 -27 14 -56 40 -75 69 -17 25 -52 58 -77 74 -28 17 -55 46 -69 71 -13 24
-34 46 -45 49 -26 6 -74 61 -74 84 0 23 -29 78 -49 93 -9 7 -26 13 -39 13 -15
0 -26 9 -33 28 -35 89 -59 107 -59 43z"/>
<path d="M8016 12863 c4 -21 11 -39 15 -41 5 -2 13 -21 19 -43 9 -32 15 -39
32 -37 16 2 24 -5 35 -37 7 -21 17 -42 21 -45 5 -3 16 -23 26 -44 15 -31 17
-52 12 -105 -7 -64 -6 -68 21 -91 48 -42 127 -100 137 -100 16 0 76 -50 76
-64 0 -16 32 -46 49 -46 19 0 77 -64 85 -93 7 -30 36 -36 56 -12 17 21 76 29
118 17 71 -21 119 -23 137 -6 19 19 4 44 -26 44 -11 0 -29 10 -40 21 -12 12
-40 27 -63 34 -23 7 -46 21 -52 33 -6 12 -34 47 -62 79 -29 32 -52 65 -52 74
0 17 -30 49 -47 49 -5 0 -18 9 -28 20 -10 11 -24 20 -31 20 -8 0 -29 22 -46
50 -27 40 -40 51 -68 56 -53 9 -90 25 -90 39 0 7 -36 51 -79 96 -44 46 -94
103 -110 127 -39 53 -54 55 -45 5z"/>
<path d="M9251 12854 c-24 -31 -24 -31 -10 -72 10 -29 110 -122 130 -122 5 0
14 -11 18 -24 6 -15 20 -25 40 -29 21 -4 35 -15 41 -31 5 -14 26 -40 47 -58
21 -18 49 -45 63 -59 26 -26 122 -79 144 -79 27 0 66 -27 77 -52 9 -22 22 -29
80 -43 44 -11 73 -24 79 -35 5 -10 26 -24 45 -30 23 -7 35 -18 35 -29 0 -32
143 -111 199 -111 14 0 43 11 64 25 32 23 37 31 37 66 0 33 -6 46 -32 70 -18
16 -44 32 -58 36 -14 3 -44 16 -68 30 -24 13 -64 30 -90 38 -68 19 -111 37
-164 66 -32 18 -50 23 -57 16 -16 -16 -67 10 -135 70 -33 29 -64 53 -69 53 -4
0 -12 12 -17 26 -6 14 -20 28 -31 31 -11 3 -25 16 -30 30 -5 13 -20 28 -34 33
-14 5 -25 16 -25 23 0 12 -76 94 -137 150 -21 18 -74 37 -105 37 -9 0 -26 -12
-37 -26z"/>
<path d="M10257 12763 c-11 -20 17 -73 59 -113 26 -25 68 -66 93 -92 39 -41
54 -49 103 -58 71 -13 161 -44 190 -64 12 -9 37 -16 54 -16 17 0 37 -7 44 -14
19 -23 105 -37 327 -51 39 -3 91 -11 115 -20 63 -22 170 -20 191 3 20 22 23
95 4 110 -8 7 -90 10 -242 7 -237 -3 -329 4 -349 28 -24 29 -93 67 -141 77
-87 19 -205 63 -205 76 0 7 -18 20 -40 30 -22 10 -40 21 -40 25 0 4 -26 17
-57 29 -32 13 -65 29 -74 37 -18 15 -26 16 -32 6z"/>
<path d="M14491 12609 c-16 -47 -14 -99 4 -99 17 0 39 65 33 100 -5 35 -24 35
-37 -1z"/>
<path d="M11893 12443 c-36 -14 2 -62 48 -63 21 0 28 6 32 27 3 16 3 31 0 35
-5 9 -61 9 -80 1z"/>
<path d="M14232 12282 c-15 -12 -21 -24 -16 -35 8 -23 29 -22 54 3 42 42 10
69 -38 32z"/>
<path d="M25784 12289 c-3 -6 -17 -9 -30 -6 -14 2 -27 0 -30 -5 -4 -6 -21 -17
-38 -25 -55 -25 -73 -38 -105 -72 -21 -22 -36 -31 -49 -27 -12 4 -29 -3 -48
-19 -16 -14 -36 -25 -44 -25 -26 0 -40 -22 -40 -60 0 -54 32 -80 98 -80 28 0
54 5 58 11 3 6 17 8 29 5 31 -8 55 2 55 24 0 10 7 23 16 31 8 7 31 36 50 65
19 29 41 55 49 58 8 3 15 17 15 31 0 16 6 25 16 25 34 0 51 18 46 49 -4 32
-33 43 -48 20z"/>
<path d="M24980 12019 c-65 -11 -82 -25 -69 -57 8 -22 13 -23 111 -21 112 2
128 5 128 24 0 7 6 15 13 18 16 6 -48 34 -93 40 -19 3 -60 1 -90 -4z"/>
<path d="M24210 12004 c-70 -12 -114 -12 -243 -3 -87 6 -170 8 -185 3 -15 -4
-32 -6 -39 -5 -6 1 -28 -10 -49 -24 -20 -14 -41 -25 -45 -25 -5 0 -9 -13 -9
-29 0 -26 -4 -29 -42 -35 -51 -7 -250 -15 -328 -13 -153 4 -255 -10 -329 -46
-69 -34 -8 -51 184 -51 160 0 282 16 299 39 11 15 31 17 142 17 71 0 146 4
166 9 20 5 112 11 205 13 98 2 187 9 215 17 37 10 52 10 73 1 41 -19 84 -14
132 14 46 27 80 27 160 3 24 -8 39 -6 62 5 16 9 41 16 54 16 30 0 117 29 117
39 0 5 -9 16 -20 26 -15 14 -41 18 -112 21 -51 2 -108 -1 -128 -6 -28 -8 -52
-5 -106 10 -38 11 -73 19 -79 19 -5 -1 -48 -8 -95 -15z"/>
<path d="M8946 11968 c-20 -97 -6 -188 28 -188 9 0 21 -9 28 -21 14 -23 69
-49 102 -49 12 0 39 -9 61 -20 22 -11 55 -20 75 -20 54 0 119 -27 166 -69 40
-35 50 -39 115 -43 39 -3 75 -11 79 -17 4 -8 17 -10 34 -5 20 5 37 0 65 -19
66 -44 110 -58 134 -45 33 17 44 31 52 66 8 37 1 41 -117 71 -36 9 -72 22 -80
29 -9 7 -33 9 -66 5 -45 -5 -57 -2 -90 21 -22 15 -59 29 -87 32 -28 4 -79 19
-115 35 -36 15 -77 30 -91 33 -15 3 -46 22 -69 41 -23 19 -46 35 -51 35 -5 0
-19 21 -30 48 -27 62 -46 82 -80 82 -15 0 -31 5 -34 10 -11 17 -24 11 -29 -12z"/>
<path d="M20730 11970 c0 -5 4 -10 9 -10 6 0 13 5 16 10 3 6 -1 10 -9 10 -9 0
-16 -4 -16 -10z"/>
<path d="M21470 11963 c0 -18 32 -53 49 -53 21 0 41 19 41 40 0 12 -11 17 -45
19 -25 1 -45 -2 -45 -6z"/>
<path d="M18967 11880 c-9 -11 -24 -20 -32 -20 -9 0 -21 -11 -27 -25 -6 -14
-15 -25 -20 -25 -18 0 4 -21 40 -37 44 -20 112 -17 128 5 7 9 18 13 29 8 11
-4 22 0 31 11 24 33 17 51 -26 63 -21 6 -42 15 -45 20 -3 5 -12 7 -19 4 -8 -3
-17 -1 -21 5 -9 16 -18 14 -38 -9z"/>
<path d="M17670 11720 c0 -5 5 -10 10 -10 6 0 10 5 10 10 0 6 -4 10 -10 10 -5
0 -10 -4 -10 -10z"/>
<path d="M18046 11706 c3 -9 11 -16 16 -16 13 0 5 23 -10 28 -7 2 -10 -2 -6
-12z"/>
<path d="M21500 11710 c-8 -5 -27 -10 -41 -10 -44 0 -44 -28 -1 -40 84 -23
222 -1 222 36 0 21 -151 33 -180 14z"/>
<path d="M22090 11692 c0 -14 11 -21 26 -15 21 8 17 23 -6 23 -11 0 -20 -4
-20 -8z"/>
<path d="M20398 11617 c-31 -7 -60 -15 -64 -19 -4 -5 -24 -8 -45 -8 -69 0
-109 -31 -76 -58 16 -13 303 -5 329 9 10 5 29 7 42 3 35 -8 89 16 74 33 -6 7
-17 13 -26 13 -8 0 -23 7 -33 16 -23 21 -126 26 -201 11z"/>
<path d="M13040 11585 c0 -16 35 -20 65 -9 13 5 14 8 3 15 -22 15 -68 11 -68
-6z"/>
<path d="M20721 11576 c-11 -13 -9 -16 13 -22 32 -8 59 2 54 19 -7 18 -53 20
-67 3z"/>
<path d="M12140 11570 c0 -5 7 -10 15 -10 8 0 15 5 15 10 0 6 -7 10 -15 10 -8
0 -15 -4 -15 -10z"/>
<path d="M8270 11480 c0 -5 5 -10 10 -10 6 0 10 5 10 10 0 6 -4 10 -10 10 -5
0 -10 -4 -10 -10z"/>
<path d="M16055 11380 c-11 -5 -52 -9 -92 -9 -63 -1 -102 -6 -200 -26 -25 -6
-21 -39 5 -50 22 -9 293 -29 352 -26 57 2 120 19 120 31 0 6 -4 10 -10 10 -5
0 -10 6 -10 13 0 7 -24 21 -52 31 -29 11 -57 23 -62 27 -12 11 -24 10 -51 -1z"/>
<path d="M11136 11349 c-17 -4 -34 -15 -38 -24 -11 -19 -44 -20 -51 -1 -7 18
-84 31 -131 22 -26 -5 -36 -13 -41 -33 -11 -44 16 -56 105 -48 90 7 95 7 190
-3 69 -7 191 5 207 21 3 4 3 17 -1 30 -5 22 -14 26 -81 36 -87 13 -118 13
-159 0z"/>
<path d="M13285 11349 c-22 -5 -101 -11 -175 -13 -198 -6 -280 -18 -280 -41 0
-22 34 -35 87 -33 26 0 143 0 258 -1 225 -2 552 5 650 14 61 6 95 18 83 30
-13 13 -81 23 -115 18 -19 -3 -44 -1 -56 5 -12 6 -74 13 -137 16 -63 3 -151 8
-195 11 -44 2 -98 0 -120 -6z"/>
<path d="M16623 11342 c-13 -2 -23 -10 -23 -17 0 -23 16 -25 34 -4 20 24 19
26 -11 21z"/>
<path d="M12043 11321 c-32 -26 -29 -31 17 -31 30 0 40 4 40 16 0 11 -6 14
-20 9 -21 -7 -28 10 -7 18 6 3 8 6 2 6 -5 0 -20 -8 -32 -18z"/>
<path d="M15194 11309 c-3 -6 0 -18 8 -26 12 -12 31 -13 97 -8 44 4 81 11 81
14 0 9 -106 31 -148 31 -17 0 -34 -5 -38 -11z"/>
<path d="M11620 11300 c0 -6 29 -10 68 -9 46 0 61 3 47 9 -28 12 -115 12 -115
0z"/>
<path d="M12770 11295 c0 -9 5 -15 11 -13 6 2 11 8 11 13 0 5 -5 11 -11 13 -6
2 -11 -4 -11 -13z"/>
<path d="M14402 11301 c-43 -11 -18 -26 46 -26 34 0 62 -3 62 -7 0 -5 9 -8 20
-8 20 0 38 25 27 37 -9 8 -129 12 -155 4z"/>
<path d="M8857 11233 c-4 -3 -7 -24 -7 -45 0 -31 9 -48 54 -100 43 -51 58 -62
79 -60 14 1 28 -2 32 -8 8 -13 45 -13 45 0 0 6 -11 21 -25 34 -14 13 -25 30
-25 39 0 9 -4 19 -10 22 -5 3 -10 17 -10 31 0 17 -8 27 -24 34 -13 4 -26 20
-30 34 -5 21 -12 26 -40 26 -18 0 -36 -3 -39 -7z"/>
<path d="M18615 10844 c-9 -14 -22 -23 -29 -21 -23 9 -38 -8 -31 -36 6 -23 13
-26 75 -32 53 -5 76 -3 102 9 38 18 60 48 52 70 -8 20 -57 36 -109 36 -35 0
-46 -5 -60 -26z"/>
<path d="M7540 10516 c0 -8 5 -18 10 -21 8 -5 7 -11 0 -20 -13 -16 -5 -35 15
-35 20 0 29 19 16 34 -7 9 -7 16 0 23 6 6 8 16 5 22 -10 16 -46 13 -46 -3z"/>
<path d="M13547 10376 c-3 -8 -3 -17 0 -20 7 -7 33 13 33 25 0 15 -27 10 -33
-5z"/>
<path d="M12620 10010 c-14 -4 -50 -8 -80 -9 -30 -1 -70 -5 -89 -11 -25 -7
-40 -6 -60 5 -30 15 -39 12 -64 -25 -23 -33 -21 -46 8 -76 l26 -26 35 22 c20
11 44 18 53 15 9 -3 41 4 70 15 37 13 59 16 71 10 10 -5 20 -7 23 -3 3 3 36 0
72 -7 55 -10 68 -17 75 -36 6 -15 18 -24 30 -24 12 0 18 5 15 10 -8 13 61 75
83 75 17 0 41 50 29 62 -10 10 -268 13 -297 3z"/>
</g>
</svg>
